<svg xmlns="http://www.w3.org/2000/svg" xmlns:xlink="http://www.w3.org/1999/xlink" viewBox="0 0 28 35" version="1.1" x="0px" y="0px"><title>Video demo</title><desc>Created with Sketch.</desc><g stroke="none" stroke-width="1" fill="none" fill-rule="evenodd"><g transform="translate(-2.000000, -2.000000)" fill="#000000"><g transform="translate(2.000000, 2.000000)"><path d="M14,26 C20.627417,26 26,20.627417 26,14 C26,7.372583 20.627417,2 14,2 C7.372583,2 2,7.372583 2,14 C2,20.627417 7.372583,26 14,26 Z M14,28 C6.2680135,28 0,21.7319865 0,14 C0,6.2680135 6.2680135,0 14,0 C21.7319865,0 28,6.2680135 28,14 C28,21.7319865 21.7319865,28 14,28 Z M18.7252448,13.0763708 C19.7064367,13.586258 19.7002638,14.4161563 18.7252448,14.9228357 L12.2766052,18.273942 C11.2954133,18.7838292 10.5,18.3108905 10.5,17.1928864 L10.5,10.80632 C10.5,9.69938234 11.3015862,9.21858511 12.2766052,9.72526445 L18.7252448,13.0763708 Z"/></g></g></g><text x="0" y="43" fill="#000000" font-size="5px" font-weight="bold" font-family="'Helvetica Neue', Helvetica, Arial-Unicode, Arial, Sans-serif">Created by Arunkumar</text><text x="0" y="48" fill="#000000" font-size="5px" font-weight="bold" font-family="'Helvetica Neue', Helvetica, Arial-Unicode, Arial, Sans-serif">from the Noun Project</text></svg>