<?xml version="1.0" encoding="UTF-8" standalone="no"?>
<svg width="125px" height="141px" viewBox="0 0 125 141" version="1.1" xmlns="http://www.w3.org/2000/svg" xmlns:xlink="http://www.w3.org/1999/xlink">
    <!-- Generator: Sketch 39.1 (31720) - http://www.bohemiancoding.com/sketch -->
    <title>Group 3</title>
    <desc>Created with Sketch.</desc>
    <defs></defs>
    <g id="Page-1" stroke="none" stroke-width="1" fill="none" fill-rule="evenodd">
        <g id="Group-3">
            <circle id="Oval-Copy-4" fill="#D0011B" cx="72.5" cy="52.5" r="52.5"></circle>
            <g id="Group-Copy-5" transform="translate(0.000000, 59.000000)">
                <path d="M102.968086,47.2271164 C102.189404,46.4221423 101.112744,45.3789138 99.7705078,44.1332708 C98.0849707,42.5713808 96.3838477,41.0599925 95.6148047,40.3824947 L94.9964941,38.6851865 C94.9964941,38.6805028 94.9932129,38.6739865 94.9901367,38.6676738 L91.6004004,29.3399115 C91.5874805,29.3111988 91.5747656,29.2810606 91.565127,29.2523479 L89.3767383,23.9630998 C89.3767383,23.9584162 89.373457,23.9535289 89.3703809,23.9488453 L87.3583594,19.0799025 C87.2878125,18.9096626 87.1981934,18.7489936 87.0860156,18.60095 C87.0314648,18.52927 86.2242773,17.4748415 84.6734766,16.0271914 C85.0260059,14.7371557 85.5450586,12.6771714 85.9037402,10.5249398 C86.5124121,6.90611992 86.9289258,1.93210078 83.6064551,0.524363355 C80.4603516,-0.805381385 76.9584375,2.25954788 74.6004492,4.68404112 C73.2869238,6.03455676 72.1204395,7.43109419 71.3516016,8.40305003 C69.5957227,7.86545032 67.6735254,7.42803964 65.5973145,7.15272343 C64.6810254,5.46009888 63.6619922,4.15112504 62.4766406,3.64692168 C61.6341797,3.28730005 60.7336816,3.30970004 59.9424902,3.71045619 C58.3373438,4.5250012 57.1327148,5.70038966 56.2357031,7.0716762 C52.5559863,7.46774871 48.7640918,8.35377006 44.9145703,9.72322386 C29.1288867,15.3366608 2.31717773,29.1932934 1.18289063,29.7818022 C0.63984375,30.061802 0.239326172,30.5566381 0.0808007813,31.1451469 C-0.0762890625,31.7320266 0.0198925781,32.358819 0.348427734,32.8723896 L30.969668,80.6533966 C31.3252734,81.2070836 31.914668,81.573018 32.5731738,81.6461234 C32.6547949,81.6524361 32.7349805,81.6589525 32.815166,81.6589525 C33.3902051,81.6589525 33.9461719,81.4331199 34.3577637,81.0258474 L48.0416016,67.5019564 C50.6192285,67.234582 52.9612207,66.7509459 55.080498,66.1241535 C55.2375879,66.0954408 55.3913965,66.0510481 55.5402832,65.98731 C64.2645117,63.2832242 69.1150195,58.1611615 70.9736426,55.7975555 C74.4497168,56.3925806 83.4942773,57.9320707 85.6666699,58.186616 C85.9964355,58.2248996 86.3393262,58.2438378 86.685293,58.2438378 C88.8769629,58.2438378 90.9209766,57.4928273 91.8501855,57.0924784 L94.6439648,57.0924784 L94.6472461,57.0924784 L94.6568848,57.0924784 L100.001221,57.0924784 C100.661162,57.0924784 101.282549,56.7996495 101.699063,56.2905588 C104.992822,52.2754628 104.992822,51.050998 104.992822,50.5290783 C104.992822,49.4954207 104.367949,48.6743593 102.968086,47.2271164 L102.968086,47.2271164 Z M77.3815137,8.08334111 C79.9062305,5.40633891 81.2581055,4.75897926 81.7644434,4.6013648 C81.9311719,5.14364814 82.180957,6.72651275 81.4504687,10.5951943 C81.2903027,11.4508738 81.1075781,12.2782479 80.931416,13.0225385 C80.7456152,12.8952658 80.5630957,12.7696222 80.3740137,12.6439787 C79.0764844,11.7850409 77.4969727,10.8721396 75.6514746,10.0321401 C76.1576074,9.42611857 76.747207,8.7516753 77.3815137,8.08334111 L77.3815137,8.08334111 Z M46.8675293,63.2514569 C46.3564746,63.2927951 45.8759766,63.512315 45.5107324,63.8751948 L33.1996875,76.0408319 L5.32567383,32.5484043 C12.0809473,29.1108207 33.4094824,18.4292846 46.3901074,13.8114253 C49.0942676,12.8506695 51.7565918,12.1509753 54.3565723,11.713361 C53.9609766,13.4568946 53.815166,15.2350464 53.7991699,16.8417364 C53.7542578,21.430883 54.7058203,25.4553463 54.7458105,25.6239571 C54.9861621,26.6229966 55.8833789,27.2941817 56.873291,27.2941817 C57.0400195,27.2941817 57.2098242,27.2750399 57.3825,27.2337017 C58.5553418,26.9569601 59.2794727,25.7862552 59.0038477,24.6186049 C58.994209,24.5835795 58.1322656,20.9474506 58.1738965,16.8830746 C58.2028125,13.8321962 58.7538574,9.99059827 61.0831348,8.12630836 C61.5701953,8.83577707 62.438291,10.3868744 63.6847559,13.6652145 C64.7646973,16.509402 65.5622461,19.1754079 65.5718848,19.2022879 C65.9114941,20.3522218 67.129043,21.0077269 68.2887598,20.6672471 C69.4454004,20.3267673 70.108623,19.1194079 69.7626563,17.969474 C69.7273828,17.846885 68.8752832,14.9933301 67.6930078,11.9137391 C68.9230664,12.1825389 70.121543,12.5277024 71.2972559,12.9429167 C71.3708789,12.9730548 71.4477832,13.0001385 71.5246875,13.0225385 C73.7163574,13.8146835 75.8083594,14.8597447 77.794541,16.1577222 C81.0017578,18.2541575 82.8985254,20.3841927 83.430293,21.0189269 L84.6478418,23.9584162 L62.3263184,38.7933173 C62.1435938,38.9142773 61.9834277,39.0621172 61.8425391,39.230728 C58.2860742,43.5954675 57.9464648,47.8380252 57.6515625,51.5820814 C57.3503027,55.3680866 57.0878027,58.6576267 53.5986035,62.0235303 C51.5900684,62.6028754 49.3520508,63.0382498 46.8675293,63.2514569 L46.8675293,63.2514569 Z M60.7724414,58.9186883 C61.6473047,56.5009151 61.8363867,54.1340509 62.0125488,51.9258194 C62.2881738,48.448934 62.5283203,45.4361356 65.0433984,42.2133882 L86.3428125,28.0578176 L87.4994531,30.859038 L90.2772363,38.4925466 L68.8527246,51.5757686 C68.8463672,51.5757686 68.8463672,51.5820814 68.8398047,51.5820814 C68.7821777,51.620365 68.727627,51.6551868 68.6730762,51.6967286 C68.6634375,51.7030413 68.6537988,51.7126122 68.6441602,51.7221831 C68.6025293,51.7539504 68.5639746,51.7859213 68.525625,51.8207431 C68.5063477,51.8366267 68.4903516,51.8525103 68.4743555,51.8683939 C68.4423633,51.8971066 68.4134473,51.9256157 68.3845313,51.9575866 C68.3685352,51.9767284 68.3525391,51.9958702 68.336543,52.0117539 C68.2979883,52.0563502 68.2629199,52.1040011 68.2243652,52.1518556 C68.2114453,52.174052 68.1987305,52.1931938 68.1827344,52.2155938 C68.1669434,52.2377901 68.147666,52.2632446 68.1349512,52.2886992 C68.0968066,52.345921 65.8602246,55.8582391 60.7724414,58.9186883 L60.7724414,58.9186883 Z M91.37625,52.7466771 C91.0366406,52.7466771 90.7033887,52.8230407 90.4021289,52.9757679 C90.3828516,52.9820806 88.4926465,53.8984438 86.685498,53.8984438 C86.5060547,53.8984438 86.3331738,53.8888729 86.1730078,53.8729892 C84.7569434,53.7074329 80.0085645,52.9216006 76.0807031,52.2597828 L91.8118359,42.6538534 C91.9367285,42.8872206 92.1001758,43.0973732 92.3019727,43.2722967 C93.4266211,44.252398 94.6121777,45.314972 95.7269824,46.3360042 L94.4934375,47.0391602 C93.9167578,47.3700691 93.5228027,47.9396397 93.4202637,48.5914793 L92.7730371,52.7464735 L91.37625,52.7464735 L91.37625,52.7466771 Z M98.9405566,52.7466771 L97.1978027,52.7466771 L97.5821191,50.2875657 L99.0430957,49.4571371 C99.5717871,49.9790568 100.013936,50.430722 100.334268,50.7807727 C100.007578,51.2994342 99.5014453,52.0213248 98.9405566,52.7466771 L98.9405566,52.7466771 Z" id="Shape" fill="#000000"></path>
                <path d="M46.8675293,63.2514569 C46.3564746,63.2927951 45.8759766,63.512315 45.5107324,63.8751948 L33.1996875,76.0408319 L5.32567383,32.5484043 C12.0809473,29.1108207 33.4094824,18.4292846 46.3901074,13.8114253 C49.0942676,12.8506695 51.7565918,12.1509753 54.3565723,11.713361 C53.9609766,13.4568946 53.815166,15.2350464 53.7991699,16.8417364 C53.7542578,21.430883 54.7058203,25.4553463 54.7458105,25.6239571 C54.9861621,26.6229966 55.8833789,27.2941817 56.873291,27.2941817 C57.0400195,27.2941817 57.2098242,27.2750399 57.3825,27.2337017 C58.5553418,26.9569601 59.2794727,25.7862552 59.0038477,24.6186049 C58.994209,24.5835795 58.1322656,20.9474506 58.1738965,16.8830746 C58.2028125,13.8321962 58.7538574,9.99059827 61.0831348,8.12630836 C61.5701953,8.83577707 62.438291,10.3868744 63.6847559,13.6652145 C64.7646973,16.509402 65.5622461,19.1754079 65.5718848,19.2022879 C65.9114941,20.3522218 67.129043,21.0077269 68.2887598,20.6672471 C69.4454004,20.3267673 70.108623,19.1194079 69.7626563,17.969474 C69.7273828,17.846885 68.8752832,14.9933301 67.6930078,11.9137391 C68.9230664,12.1825389 70.121543,12.5277024 71.2972559,12.9429167 C71.3708789,12.9730548 71.4477832,13.0001385 71.5246875,13.0225385 C73.7163574,13.8146835 75.8083594,14.8597447 77.794541,16.1577222 C81.0017578,18.2541575 82.8985254,20.3841927 83.430293,21.0189269 L84.6478418,23.9584162 L62.3263184,38.7933173 C62.1435938,38.9142773 61.9834277,39.0621172 61.8425391,39.230728 C58.2860742,43.5954675 57.9464648,47.8380252 57.6515625,51.5820814 C57.3503027,55.3680866 57.0878027,58.6576267 53.5986035,62.0235303 C51.5900684,62.6028754 49.3520508,63.0382498 46.8675293,63.2514569 L46.8675293,63.2514569 Z" id="Path" fill="#FFFFFF"></path>
                <path d="M98.9405566,52.7466771 L97.1978027,52.7466771 L97.5821191,50.2875657 L99.0430957,49.4571371 C99.5717871,49.9790568 100.013936,50.430722 100.334268,50.7807727 C100.007578,51.2994342 99.5014453,52.0213248 98.9405566,52.7466771 L98.9405566,52.7466771 Z" id="Path" fill="#FFFFFF"></path>
                <path d="M91.37625,52.7466771 C91.0366406,52.7466771 90.7033887,52.8230407 90.4021289,52.9757679 C90.3828516,52.9820806 88.4926465,53.8984438 86.685498,53.8984438 C86.5060547,53.8984438 86.3331738,53.8888729 86.1730078,53.8729892 C84.7569434,53.7074329 80.0085645,52.9216006 76.0807031,52.2597828 L91.8118359,42.6538534 C91.9367285,42.8872206 92.1001758,43.0973732 92.3019727,43.2722967 C93.4266211,44.252398 94.6121777,45.314972 95.7269824,46.3360042 L94.4934375,47.0391602 C93.9167578,47.3700691 93.5228027,47.9396397 93.4202637,48.5914793 L92.7730371,52.7464735 L91.37625,52.7464735 L91.37625,52.7466771 Z" id="Path" fill="#FFFFFF"></path>
                <path d="M77.3815137,8.08334111 C79.9062305,5.40633891 81.2581055,4.75897926 81.7644434,4.6013648 C81.9311719,5.14364814 82.180957,6.72651275 81.4504687,10.5951943 C81.2903027,11.4508738 81.1075781,12.2782479 80.931416,13.0225385 C80.7456152,12.8952658 80.5630957,12.7696222 80.3740137,12.6439787 C79.0764844,11.7850409 77.4969727,10.8721396 75.6514746,10.0321401 C76.1576074,9.42611857 76.747207,8.7516753 77.3815137,8.08334111 L77.3815137,8.08334111 Z" id="Path" fill="#FFFFFF"></path>
                <path d="M60.7724414,58.9186883 C61.6473047,56.5009151 61.8363867,54.1340509 62.0125488,51.9258194 C62.2881738,48.448934 62.5283203,45.4361356 65.0433984,42.2133882 L86.3428125,28.0578176 L87.4994531,30.859038 L90.2772363,38.4925466 L68.8527246,51.5757686 C68.8463672,51.5757686 68.8463672,51.5820814 68.8398047,51.5820814 C68.7821777,51.620365 68.727627,51.6551868 68.6730762,51.6967286 C68.6634375,51.7030413 68.6537988,51.7126122 68.6441602,51.7221831 C68.6025293,51.7539504 68.5639746,51.7859213 68.525625,51.8207431 C68.5063477,51.8366267 68.4903516,51.8525103 68.4743555,51.8683939 C68.4423633,51.8971066 68.4134473,51.9256157 68.3845313,51.9575866 C68.3685352,51.9767284 68.3525391,51.9958702 68.336543,52.0117539 C68.2979883,52.0563502 68.2629199,52.1040011 68.2243652,52.1518556 C68.2114453,52.174052 68.1987305,52.1931938 68.1827344,52.2155938 C68.1669434,52.2377901 68.147666,52.2632446 68.1349512,52.2886992 C68.0968066,52.345921 65.8602246,55.8582391 60.7724414,58.9186883 L60.7724414,58.9186883 Z" id="Path" fill="#FFFFFF"></path>
                <path d="M83.1228809,40.393491 C84.3275098,40.393491 85.3079883,39.4217388 85.3079883,38.2223213 C85.3079883,37.0227001 84.3275098,36.0509479 83.1228809,36.0509479 C81.9118945,36.0509479 80.9312109,37.0227001 80.9312109,38.2223213 C80.931416,39.4217388 81.9118945,40.393491 83.1228809,40.393491 L83.1228809,40.393491 Z" id="Shape" fill="#000000"></path>
            </g>
        </g>
    </g>
</svg>