<?xml version="1.0" encoding="UTF-8"?>
<svg width="42px" height="32px" viewBox="0 0 42 32" version="1.1" xmlns="http://www.w3.org/2000/svg" xmlns:xlink="http://www.w3.org/1999/xlink">
    <!-- Generator: Sketch 45.2 (43514) - http://www.bohemiancoding.com/sketch -->
    <title>Group 3 Copy</title>
    <desc>Created with Sketch.</desc>
    <defs></defs>
    <g id="Page-1" stroke="none" stroke-width="1" fill="none" fill-rule="evenodd">
        <g id="Group-3-Copy">
            <g id="Group-Copy-5" transform="translate(0.271312, 0.319226)">
                <path d="M39.9826181,18.3383399 C39.6802552,18.0257676 39.2621869,17.6206809 38.7409951,17.1369964 C38.0864992,16.5305128 37.4259513,15.9436391 37.1273311,15.680566 L36.8872405,15.0214994 C36.8872405,15.0196807 36.8859664,15.0171504 36.8847719,15.0146992 L35.5685336,11.3927191 C35.5635168,11.3815699 35.5585796,11.3698672 35.5548369,11.358718 L34.7050833,9.30489735 C34.7050833,9.30307869 34.7038092,9.30118096 34.7026147,9.2993623 L33.9213446,7.40874658 C33.8939511,7.34264224 33.8591519,7.28025429 33.8155932,7.22276882 C33.7944111,7.19493542 33.4809793,6.78549969 32.8788017,6.22337559 C33.0156892,5.72245336 33.2172379,4.92255923 33.3565144,4.0868454 C33.5928623,2.68165377 33.754595,0.750236803 32.4644761,0.203610853 C31.2428407,-0.312730455 29.8830438,0.877384862 28.9674344,1.81881819 C28.4573911,2.34322486 28.0044439,2.88550184 27.7059034,3.26291333 C27.0240937,3.05416279 26.2777024,2.88431575 25.4715075,2.77741017 C25.1157115,2.12016225 24.7200198,1.6118863 24.2597465,1.4161036 C23.932618,1.27646213 23.5829537,1.28516007 23.2757332,1.44077411 C22.6524531,1.75706282 22.1846944,2.21346742 21.8363838,2.74593945 C20.4075458,2.89973483 18.9351491,3.24377787 17.4403758,3.77553825 C11.3107779,5.95524184 0.899762598,11.3357871 0.459317697,11.5643057 C0.248452014,11.6730299 0.092930609,11.8651753 0.03137503,12.0936939 C-0.0296231247,12.3215799 0.00772430941,12.5649641 0.135294863,12.7643841 L12.0255553,31.3178004 C12.1636372,31.5327976 12.3924998,31.6748903 12.6481983,31.7032772 C12.6798919,31.7057285 12.711028,31.7082588 12.7421641,31.7082588 C12.9654524,31.7082588 13.1813349,31.6205677 13.3411565,31.4624234 L18.6546054,26.211082 C19.6555007,26.1072603 20.5648988,25.9194638 21.3878164,25.6760797 C21.4488146,25.6649305 21.5085386,25.6476928 21.5663515,25.6229432 C24.9539788,24.5729438 26.8374362,22.5840413 27.5591415,21.6662506 C28.9089048,21.8972995 32.4209174,22.4950851 33.2644597,22.5939254 C33.3925081,22.6087909 33.5256529,22.6161446 33.6599922,22.6161446 C34.5110199,22.6161446 35.3047126,22.3245264 35.6655255,22.1690706 L36.750353,22.1690706 L36.7516271,22.1690706 L36.7553698,22.1690706 L38.8305812,22.1690706 C39.0868371,22.1690706 39.3281223,22.0553648 39.489855,21.8576843 C40.7688254,20.2986182 40.7688254,19.8231572 40.7688254,19.6204953 C40.7688254,19.2191249 40.5261865,18.9003059 39.9826181,18.3383399 L39.9826181,18.3383399 Z M30.0473247,3.13877002 C31.0276749,2.09928719 31.5526094,1.84791675 31.749221,1.78671488 C31.8139618,1.99728409 31.9109537,2.61191211 31.6273043,4.1141253 C31.5651117,4.44638659 31.4941595,4.76765684 31.4257556,5.05666564 C31.3536089,5.00724553 31.2827364,4.958458 31.2093156,4.90967046 C30.7054836,4.57614403 30.0921575,4.22166346 29.3755487,3.89549074 C29.5720806,3.66017194 29.8010227,3.3982849 30.0473247,3.13877002 L30.0473247,3.13877002 Z M18.1987119,24.5606085 C18.0002688,24.5766602 17.8136909,24.6619 17.6718662,24.8028066 L12.8914742,29.5267365 L2.06796486,12.6385803 C4.69104477,11.3037629 12.9729378,7.15611098 18.0133284,5.36299125 C19.0633567,4.98992872 20.0971401,4.71823673 21.1067153,4.54831062 C20.953105,5.22532659 20.8964866,5.91578483 20.8902753,6.53966429 C20.8728359,8.32163485 21.2423287,9.88433826 21.2578569,9.94981002 C21.3511857,10.3377381 21.6995759,10.59836 22.0839599,10.59836 C22.1487007,10.59836 22.2146361,10.5909272 22.2816862,10.5748756 C22.737102,10.4674165 23.0182828,10.0128305 22.9112573,9.55943069 C22.9075146,9.54583027 22.572821,8.1339175 22.5889864,6.55571595 C22.6002145,5.37105661 22.8141858,3.87936001 23.7186467,3.15545425 C23.9077728,3.43094171 24.2448553,4.03323447 24.728859,5.30621743 C25.1482014,6.4106185 25.4578904,7.44583143 25.4616331,7.45626896 C25.5935038,7.90278953 26.0662793,8.15732287 26.5165986,8.02511419 C26.9657234,7.89290551 27.2232535,7.42408658 27.0889142,6.977566 C27.0752175,6.92996455 26.7443463,5.82192616 26.2852675,4.62611764 C26.7629006,4.73049291 27.2282703,4.86452025 27.6848009,5.02574842 C27.7133888,5.0374511 27.7432508,5.0479677 27.7731128,5.05666564 C28.6241406,5.3642564 29.4364672,5.77005481 30.2077037,6.27406086 C31.4530694,7.08810891 32.1895863,7.91520386 32.3960722,8.16167184 L32.8688477,9.30307869 L24.2013762,15.0634867 C24.1304241,15.1104556 24.0682314,15.167862 24.0135242,15.2333337 C22.6325451,16.9281667 22.5006744,18.5755565 22.3861635,20.0293775 C22.269184,21.4994874 22.167255,22.7768193 20.8123952,24.0838033 C20.0324788,24.3087636 19.1634542,24.4778199 18.1987119,24.5606085 L18.1987119,24.5606085 Z M23.5980041,22.8781898 C23.9377145,21.9393659 24.0111352,21.02031 24.0795392,20.1628513 C24.1865647,18.812773 24.2798138,17.6429001 25.2564213,16.3915039 L33.5270066,10.8948807 L33.9761314,11.9825975 L35.0547476,14.9466971 L26.7355868,20.0269262 C26.7331182,20.0269262 26.7331182,20.0293775 26.7305699,20.0293775 C26.7081933,20.044243 26.6870112,20.0577644 26.6658291,20.0738951 C26.6620864,20.0763463 26.6583437,20.0800627 26.654601,20.0837791 C26.6384357,20.0961144 26.6234648,20.1085287 26.6085736,20.1220501 C26.6010882,20.1282177 26.5948769,20.1343853 26.5886656,20.140553 C26.576243,20.1517021 26.5650149,20.1627722 26.5537868,20.1751866 C26.5475755,20.1826194 26.5413642,20.1900521 26.5351529,20.1962198 C26.520182,20.2135366 26.506565,20.2320395 26.4915941,20.2506214 C26.4865773,20.2592403 26.4816401,20.2666731 26.4754288,20.275371 C26.4692972,20.2839899 26.4618118,20.2938739 26.4568746,20.3037579 C26.442063,20.3259772 25.5735958,21.6898141 23.5980041,22.8781898 L23.5980041,22.8781898 Z M35.4814958,20.4815912 C35.3496251,20.4815912 35.220223,20.5112433 35.1032435,20.5705474 C35.0957581,20.5729987 34.3617895,20.9288235 33.6600718,20.9288235 C33.5903937,20.9288235 33.5232639,20.9251071 33.4610713,20.9189395 C32.9112119,20.8546538 31.0674113,20.5495142 29.5422186,20.2925297 L35.6506343,16.562537 C35.6991302,16.6531537 35.762597,16.7347562 35.8409549,16.8026792 C36.2776571,17.1832536 36.73801,17.5958522 37.1708899,17.9923201 L36.6919031,18.2653563 C36.4679777,18.3938486 36.3150045,18.6150135 36.2751885,18.8681235 L36.0238697,20.4815122 L35.4814958,20.4815122 L35.4814958,20.4815912 Z M38.4187242,20.4815912 L37.742011,20.4815912 L37.8912414,19.5267157 L38.4585402,19.2042593 C38.6638316,19.4069213 38.8355184,19.5823034 38.9599036,19.7182285 C38.8330498,19.9196253 38.6365179,20.1999362 38.4187242,20.4815912 L38.4187242,20.4815912 Z" id="Shape" fill="#000000"></path>
                <path d="M18.1987119,24.5606085 C18.0002688,24.5766602 17.8136909,24.6619 17.6718662,24.8028066 L12.8914742,29.5267365 L2.06796486,12.6385803 C4.69104477,11.3037629 12.9729378,7.15611098 18.0133284,5.36299125 C19.0633567,4.98992872 20.0971401,4.71823673 21.1067153,4.54831062 C20.953105,5.22532659 20.8964866,5.91578483 20.8902753,6.53966429 C20.8728359,8.32163485 21.2423287,9.88433826 21.2578569,9.94981002 C21.3511857,10.3377381 21.6995759,10.59836 22.0839599,10.59836 C22.1487007,10.59836 22.2146361,10.5909272 22.2816862,10.5748756 C22.737102,10.4674165 23.0182828,10.0128305 22.9112573,9.55943069 C22.9075146,9.54583027 22.572821,8.1339175 22.5889864,6.55571595 C22.6002145,5.37105661 22.8141858,3.87936001 23.7186467,3.15545425 C23.9077728,3.43094171 24.2448553,4.03323447 24.728859,5.30621743 C25.1482014,6.4106185 25.4578904,7.44583143 25.4616331,7.45626896 C25.5935038,7.90278953 26.0662793,8.15732287 26.5165986,8.02511419 C26.9657234,7.89290551 27.2232535,7.42408658 27.0889142,6.977566 C27.0752175,6.92996455 26.7443463,5.82192616 26.2852675,4.62611764 C26.7629006,4.73049291 27.2282703,4.86452025 27.6848009,5.02574842 C27.7133888,5.0374511 27.7432508,5.0479677 27.7731128,5.05666564 C28.6241406,5.3642564 29.4364672,5.77005481 30.2077037,6.27406086 C31.4530694,7.08810891 32.1895863,7.91520386 32.3960722,8.16167184 L32.8688477,9.30307869 L24.2013762,15.0634867 C24.1304241,15.1104556 24.0682314,15.167862 24.0135242,15.2333337 C22.6325451,16.9281667 22.5006744,18.5755565 22.3861635,20.0293775 C22.269184,21.4994874 22.167255,22.7768193 20.8123952,24.0838033 C20.0324788,24.3087636 19.1634542,24.4778199 18.1987119,24.5606085 L18.1987119,24.5606085 Z" id="Path" fill="#FFFFFF"></path>
                <path d="M38.4187242,20.4815912 L37.742011,20.4815912 L37.8912414,19.5267157 L38.4585402,19.2042593 C38.6638316,19.4069213 38.8355184,19.5823034 38.9599036,19.7182285 C38.8330498,19.9196253 38.6365179,20.1999362 38.4187242,20.4815912 L38.4187242,20.4815912 Z" id="Path" fill="#FFFFFF"></path>
                <path d="M35.4814958,20.4815912 C35.3496251,20.4815912 35.220223,20.5112433 35.1032435,20.5705474 C35.0957581,20.5729987 34.3617895,20.9288235 33.6600718,20.9288235 C33.5903937,20.9288235 33.5232639,20.9251071 33.4610713,20.9189395 C32.9112119,20.8546538 31.0674113,20.5495142 29.5422186,20.2925297 L35.6506343,16.562537 C35.6991302,16.6531537 35.762597,16.7347562 35.8409549,16.8026792 C36.2776571,17.1832536 36.73801,17.5958522 37.1708899,17.9923201 L36.6919031,18.2653563 C36.4679777,18.3938486 36.3150045,18.6150135 36.2751885,18.8681235 L36.0238697,20.4815122 L35.4814958,20.4815122 L35.4814958,20.4815912 Z" id="Path" fill="#FFFFFF"></path>
                <path d="M30.0473247,3.13877002 C31.0276749,2.09928719 31.5526094,1.84791675 31.749221,1.78671488 C31.8139618,1.99728409 31.9109537,2.61191211 31.6273043,4.1141253 C31.5651117,4.44638659 31.4941595,4.76765684 31.4257556,5.05666564 C31.3536089,5.00724553 31.2827364,4.958458 31.2093156,4.90967046 C30.7054836,4.57614403 30.0921575,4.22166346 29.3755487,3.89549074 C29.5720806,3.66017194 29.8010227,3.3982849 30.0473247,3.13877002 L30.0473247,3.13877002 Z" id="Path" fill="#FFFFFF"></path>
                <path d="M23.5980041,22.8781898 C23.9377145,21.9393659 24.0111352,21.02031 24.0795392,20.1628513 C24.1865647,18.812773 24.2798138,17.6429001 25.2564213,16.3915039 L33.5270066,10.8948807 L33.9761314,11.9825975 L35.0547476,14.9466971 L26.7355868,20.0269262 C26.7331182,20.0269262 26.7331182,20.0293775 26.7305699,20.0293775 C26.7081933,20.044243 26.6870112,20.0577644 26.6658291,20.0738951 C26.6620864,20.0763463 26.6583437,20.0800627 26.654601,20.0837791 C26.6384357,20.0961144 26.6234648,20.1085287 26.6085736,20.1220501 C26.6010882,20.1282177 26.5948769,20.1343853 26.5886656,20.140553 C26.576243,20.1517021 26.5650149,20.1627722 26.5537868,20.1751866 C26.5475755,20.1826194 26.5413642,20.1900521 26.5351529,20.1962198 C26.520182,20.2135366 26.506565,20.2320395 26.4915941,20.2506214 C26.4865773,20.2592403 26.4816401,20.2666731 26.4754288,20.275371 C26.4692972,20.2839899 26.4618118,20.2938739 26.4568746,20.3037579 C26.442063,20.3259772 25.5735958,21.6898141 23.5980041,22.8781898 L23.5980041,22.8781898 Z" id="Path" fill="#FFFFFF"></path>
                <path d="M32.2767037,15.6848359 C32.7444624,15.6848359 33.1251833,15.3075034 33.1251833,14.8417683 C33.1251833,14.3759541 32.7444624,13.9986217 32.2767037,13.9986217 C31.8064764,13.9986217 31.4256759,14.3759541 31.4256759,14.8417683 C31.4257556,15.3075034 31.8064764,15.6848359 32.2767037,15.6848359 L32.2767037,15.6848359 Z" id="Shape" fill="#000000"></path>
            </g>
        </g>
    </g>
</svg>