<?xml version="1.0" encoding="UTF-8" standalone="no"?>
<svg width="91px" height="115px" viewBox="0 0 91 115" version="1.1" xmlns="http://www.w3.org/2000/svg" xmlns:xlink="http://www.w3.org/1999/xlink">
    <!-- Generator: Sketch 39.1 (31720) - http://www.bohemiancoding.com/sketch -->
    <title>Project - Drawing 13 Copy 2</title>
    <desc>Created with Sketch.</desc>
    <defs></defs>
    <g id="Page-1" stroke="none" stroke-width="1" fill="none" fill-rule="evenodd">
        <g id="Project---Drawing-13-Copy-2">
            <path d="M90.9438657,10.5337849 C90.9189171,10.292539 90.8908499,10.0444888 90.8459424,9.80819151 C90.8214096,9.67705272 90.796669,9.54591394 90.7717204,9.41477515 C90.7642358,9.3745675 90.7548801,9.33497844 90.746148,9.29538937 C90.7823235,8.62856101 90.8584167,7.96482555 90.9058191,7.29861577 C90.9394997,6.82045406 90.7530089,6.44745081 90.5708842,6.0317656 L90.5658944,5.97856779 C90.5900111,5.85212026 90.6023296,5.72373795 90.6026936,5.5950487 C90.6532145,4.79770014 90.1037217,4.02756905 89.3976765,3.69415487 C89.2355106,3.61745106 89.0708499,3.54569587 88.9049417,3.47579642 L88.8968334,3.47022921 C88.8226114,3.41826856 88.7477656,3.36692649 88.6722961,3.31682157 C88.4982796,3.203003 88.3211446,3.09598881 88.1415147,2.9920675 C87.7773201,2.79222586 87.4025497,2.61195887 87.018828,2.45204788 C86.4837812,2.20553044 85.935071,1.98929926 85.3753393,1.80439547 C84.9593215,1.67387527 84.5252159,1.6015015 84.0979712,1.51861189 C83.6707265,1.43572228 83.2553324,1.34850262 82.8355723,1.25942721 C82.2704866,1.13942285 81.7072721,1.04354308 81.132207,0.977355108 C80.6731528,0.924157298 80.2122276,0.904981343 79.7513023,0.870340909 C79.6145008,0.860031256 79.4783231,0.847247286 79.342769,0.831989 C78.690987,0.725593381 78.0423235,0.602496123 77.3855517,0.52950378 C76.8085362,0.466343533 76.2283999,0.435365817 75.6478821,0.436716903 L75.0753119,0.436716903 C74.1883893,0.440428378 73.300843,0.444139853 72.4182865,0.356920188 C71.6779369,0.233204352 70.9419534,0.0661879725 70.1872584,0.0600021807 L70.0456751,0.0600021807 C69.3202947,0.0600021807 68.5930432,0.10577704 67.8689102,0.139798895 C66.2141947,0.217739872 64.5813091,0.514657879 62.945305,0.755285181 C62.1800069,0.844979163 61.4122138,0.911167135 60.6456683,0.989726691 C59.6708019,1.08931794 58.7040439,1.26499443 57.7354147,1.40974196 C57.3905003,1.45427966 57.0449623,1.4975802 56.700048,1.54335506 C56.1293489,1.61882172 55.5636395,1.71099002 54.9973064,1.81305558 C54.5575874,1.8928523 54.1135024,1.95842169 53.6750308,2.0444042 C53.2147293,2.13533534 52.762536,2.24111238 52.309719,2.36420963 C51.4365182,2.60112546 50.6113434,2.9920675 49.7705757,3.31682157 C48.8973749,3.65456581 48.0123235,3.96632972 47.129767,4.2818051 C46.2790199,4.58552748 45.4582111,4.95853072 44.6305415,5.31668807 C43.7816655,5.64948367 42.9271761,5.96619621 42.0795476,6.30208471 C41.6541741,6.47095682 41.230048,6.64354041 40.8052981,6.81241253 C40.4067443,6.97015022 40.0032008,7.11613491 39.6027759,7.26830539 C38.5892392,7.65306164 37.6068883,8.10957308 36.6220425,8.55804298 C35.770048,8.94527355 34.9149349,9.32631833 34.0548321,9.69437294 C33.2190541,10.0519117 32.3863948,10.4113062 31.5599726,10.7874024 C31.281172,10.9111182 31.0048663,11.0453499 30.7285607,11.1783444 C30.0586909,11.4637156 29.393395,11.760015 28.7326731,12.0672427 C28.3908773,12.2264237 28.0505369,12.3891101 27.7116518,12.5553017 C27.3673612,12.7049978 27.0255655,12.8559311 26.683146,13.0136688 C25.8348938,13.405848 24.979157,13.7819442 24.1365182,14.1889693 C23.5932625,14.4493911 23.069342,14.7555878 22.5423029,15.0469386 C22.0339753,15.327155 21.5262714,15.6086085 21.0223098,15.8968664 C20.5301988,16.1789385 20.072392,16.5154456 19.6158328,16.8519527 C19.2771556,17.0993843 18.9447156,17.358569 18.6128992,17.6177537 C17.0760658,18.6501623 15.6009801,19.7636049 14.1539616,20.9203479 L14.0385744,21.0125162 L13.8121659,21.1776769 C13.3518643,21.5098539 12.8965524,21.8488353 12.4518437,22.2008068 C12.0888417,22.4884462 11.7507882,22.8014472 11.4183482,23.1224898 C11.333523,23.2041423 11.2499452,23.2870319 11.1657437,23.3699215 C10.7229061,23.7571521 10.2869294,24.1518056 9.85594243,24.549552 C9.55614348,24.8246135 9.26071053,25.1037989 8.96964359,25.3871082 C8.76381768,25.5671148 8.56048663,25.7495956 8.36339273,25.9388808 C8.04030843,26.2481704 7.72221385,26.5630272 7.40287183,26.8772655 C6.73424949,27.5360523 6.03568883,28.1620544 5.36082934,28.8134183 C5.01840987,29.1443582 4.67474297,29.4740609 4.34105552,29.8136608 C4.02919808,30.1297548 3.72856751,30.4532717 3.42357094,30.7749329 C3.11857437,31.0965941 2.79985607,31.4021722 2.49860178,31.7244519 C2.35639479,31.8753852 2.21917752,32.0294115 2.08507882,32.1877677 C1.89290013,32.4217165 1.71900254,32.6698686 1.56490062,32.9300628 C1.2792392,33.3958529 0.946799178,33.8325698 0.66550377,34.3014528 C0.525167923,34.5358943 0.386703221,34.7690987 0.27006854,35.0159118 C0.217676491,35.127256 0.162789582,35.2546833 0.120376971,35.3647904 C0.0589534815,35.5331858 0.0219920763,35.7093896 0.0106031528,35.8881084 C0.00251761282,35.9794269 0.000434158715,36.0711706 0.00436600411,36.1627576 C0.0176560849,36.3631127 0.0491779626,36.5618666 0.09854695,36.7565936 C0.119760398,36.8406893 0.146427726,36.9233385 0.178382454,37.0040252 C0.227755843,37.1464718 0.29502269,37.2821839 0.378594928,37.4079575 C0.461400615,37.5247859 0.554266237,37.6342722 0.656148047,37.7351858 C0.792680371,37.8621427 0.938623342,37.9787628 1.09274846,38.0840645 L1.1364085,38.1149935 L1.14202193,38.1286022 C1.17433763,38.2071398 1.2107707,38.2839484 1.25117204,38.3587137 C1.36468814,38.5603705 1.49254969,38.7508929 1.62540096,38.9414152 C2.07659751,39.5844394 2.56866683,40.1982837 3.09861549,40.779214 C3.17096642,40.9177757 3.24394106,41.0557189 3.32190541,41.1911877 C3.7491501,41.9334827 4.27431803,42.6058783 4.80135709,43.2788925 C5.31529815,43.9358236 5.88100754,44.5463612 6.45732008,45.1488573 C7.00993146,45.7259917 7.53697053,46.3241578 8.0727416,46.9173752 C8.55113091,47.4456418 9.02265936,47.9800943 9.51289925,48.497845 C10.0368197,49.0545663 10.5401576,49.6242777 11.0721864,50.1680088 C11.2283913,50.3296687 11.3928522,50.4832781 11.5649212,50.6282317 C11.639767,50.6900896 11.7158602,50.7519476 11.7932008,50.8138055 C11.946011,51.0253596 12.09695,51.2375322 12.252255,51.4478491 C12.6227416,51.9488983 13.0081974,52.4511846 13.4217204,52.9188304 C14.1040644,53.6901987 14.7814188,54.4652784 15.487464,55.2162335 C15.8248938,55.5743909 16.1673132,55.9288367 16.5247019,56.2678181 C16.9232557,56.6451514 17.3274229,57.0162989 17.7241056,57.3961066 C18.4663263,58.1080912 19.2147841,58.81389 19.9563811,59.5264933 C20.3536875,59.9081566 20.748499,60.2910571 21.1327073,60.6850921 C21.5169157,61.079127 21.8811652,61.4960494 22.2553941,61.8968887 C22.6420973,62.3076253 23.0587389,62.6917629 23.4616587,63.087035 C23.8358876,63.4581825 24.1938999,63.8466503 24.5500411,64.235118 C24.9161618,64.633483 25.2829061,65.0392709 25.6827073,65.4029955 C26.1193077,65.805072 26.5677587,66.1972512 27.0093489,66.5962347 C27.8201782,67.3292511 28.5287183,68.1649515 29.2453667,68.9864247 C29.9620151,69.8078978 30.7073544,70.5885448 31.4152707,71.4106365 C32.1599863,72.2766474 32.8997121,73.1457511 33.6768609,73.9826887 C34.4540096,74.8196264 35.236148,75.6219236 36.0132968,76.4452525 C36.7617546,77.2419825 37.5064702,78.0479911 38.26366,78.8397725 C39.7873955,80.4319953 41.3391981,82.0025678 42.7837217,83.6646901 C43.4966278,84.4861633 44.1883276,85.3243381 44.887512,86.1581828 C45.5735984,86.9759445 46.2802673,87.7745302 46.9613639,88.5960033 C47.6424606,89.4174765 48.3235572,90.2191551 49.0246127,91.0152665 C49.7462509,91.8348839 50.459157,92.6606871 51.1876559,93.4765931 C51.904928,94.280746 52.6614942,95.0514957 53.344462,95.8841033 C54.0367855,96.7278453 54.7054078,97.5889075 55.4233036,98.4116178 C56.8285332,100.023635 58.2718095,101.604724 59.7132145,103.184575 C60.4117752,103.950376 61.1234339,104.703805 61.8219945,105.469606 C62.5080809,106.224273 63.2053941,106.968424 63.9270322,107.692161 C64.6692529,108.434456 65.4014942,109.192216 66.1879986,109.89121 C66.9745031,110.590205 67.7896984,111.247754 68.6136258,111.900355 C69.1649897,112.336454 69.71573,112.773789 70.3057642,113.157927 C70.7367512,113.43938 71.1920631,113.693616 71.6498698,113.931151 C72.0052181,114.107113 72.3695426,114.264651 72.7413708,114.403127 C73.2097807,114.588701 73.7393146,114.619011 74.2351679,114.68025 C74.6368403,114.730355 75.0615901,114.640661 75.4526594,114.584989 C75.6450564,114.553673 75.8333336,114.501182 76.0140027,114.428489 C76.3034834,114.319107 76.58648,114.19354 76.8616313,114.052392 C77.2972013,113.82953 77.7143123,113.572844 78.109061,113.284736 C78.4495183,113.044924 78.7680123,112.775833 79.0608499,112.480583 C79.3529891,112.162831 79.6216737,111.824624 79.8648184,111.468587 C80.1835367,111.021354 80.4330226,110.527728 80.6725291,110.035339 C80.9120356,109.54295 81.1403153,109.025818 81.3623578,108.516109 C81.637416,107.885158 81.9074846,107.248021 82.1476148,106.602843 C82.3496984,106.059112 82.5218437,105.511051 82.685257,104.95433 C82.8324537,104.444621 82.9422276,103.921921 83.0495065,103.402315 C83.1542906,102.894667 83.2466004,102.384133 83.3264359,101.870713 C83.5235298,100.606337 83.6977542,99.3386618 83.849109,98.0676878 C83.9775942,96.9752769 84.0493215,95.8766803 84.1310281,94.7799394 C84.2108636,93.7085603 84.310658,92.6384183 84.3892461,91.5664206 C84.4678341,90.4944229 84.5002673,89.413765 84.5495408,88.3380558 C84.6505826,86.1390068 84.7422687,83.9387207 84.89695,81.7427646 C84.9717958,80.6825199 85.1327142,79.6290795 85.2343797,78.5713091 C85.3422824,77.4578666 85.4214942,76.3444241 85.5019534,75.2266515 C85.6528924,73.0690473 85.9616313,70.9306191 86.2173544,68.7841493 C86.3514531,67.6589538 86.4737012,66.5331397 86.5766141,65.4048512 C86.6739136,64.340895 86.7244345,63.2732274 86.7930432,62.2074154 C86.863523,61.1082002 86.9514668,60.0102222 87.0013639,58.9103884 C87.0531323,57.7691098 87.0587457,56.6265941 87.0637354,55.4846969 C87.0730912,53.2924523 87.0306785,51.0971148 87.09305,48.9054887 C87.1179986,48.0394779 87.1940918,47.1802714 87.3007471,46.3229206 C87.4878615,45.0857623 87.7074092,43.8486039 87.8857916,42.6114455 C88.0984784,41.134897 88.2731186,39.6533999 88.4658465,38.1743771 C88.7390336,36.1825521 89.0109733,34.1907271 89.3016244,32.2007579 C89.481878,30.9666924 89.6602605,29.7344827 89.7949829,28.49485 C89.9028855,27.5051233 90.0170254,26.5153966 90.0875051,25.522577 C90.1619351,24.4759411 90.2116244,23.4286865 90.236573,22.3808134 C90.2596504,21.3985096 90.2677587,20.4168245 90.2814805,19.4345207 C90.3238931,19.1481186 90.3619397,18.8598607 90.3850171,18.5685099 C90.4074709,18.2895307 90.4299246,18.0117886 90.4573681,17.7321908 C90.5047704,17.4272313 90.5565387,17.1228903 90.6026936,16.8173122 C90.658828,16.4461647 90.71122,16.0750172 90.7530089,15.6989211 C90.7723751,15.4767567 90.7759183,15.2535143 90.7636121,15.0308555 C90.7505141,14.6312534 90.7230706,14.2322698 90.7012406,13.8332862 C90.7411583,13.4875005 90.7816998,13.1410961 90.8191227,12.7953104 C90.8814942,12.2169388 90.9525977,11.6379487 90.9750514,11.0564843 C90.9772561,10.8817361 90.9668342,10.7070558 90.9438657,10.5337849 L90.9438657,10.5337849 Z M13.7809801,45.0634934 C13.8188188,45.3146366 13.8566575,45.5655735 13.8944962,45.8163043 C13.9219397,45.9963108 13.9643523,46.1744616 14.0005278,46.353231 C14.0404455,46.5480834 14.0866004,46.7361315 14.1389925,46.9285096 C14.1626936,47.0151107 14.1888897,47.0986189 14.2175805,47.1821271 L14.2076011,47.1907872 C14.1610304,47.2233657 14.1142518,47.2555318 14.0672653,47.2872856 C13.9680946,47.1802714 13.8695476,47.0726386 13.7697533,46.9674801 C13.5071693,46.6915938 13.2495751,46.4107589 12.9919808,46.1299239 C12.6801234,45.7872311 12.3589102,45.4494868 12.0426868,45.1092683 C12.4911378,44.552547 12.9427073,43.9958257 13.4092461,43.4520946 L13.533989,43.3073471 C13.6132008,43.8943788 13.6924126,44.4801732 13.7809801,45.0634934 L13.7809801,45.0634934 Z M15.82427,45.6721753 L15.82427,45.6666081 C15.7618986,45.2193754 15.6995271,44.7727612 15.6402742,44.3255284 C15.5425588,43.5972546 15.4448435,42.8691869 15.3471282,42.1413254 L15.3795613,42.4036029 C15.3338223,42.0617348 15.2880832,41.7196605 15.2423441,41.3773801 L15.2978547,41.3155221 C15.7007745,40.8645779 16.1036943,40.416108 16.5147224,39.9732053 C16.5215833,40.2528031 16.5328101,40.5299266 16.5402947,40.8113801 C16.5646196,41.7064642 16.6363468,42.5990739 16.708074,43.4916837 C16.7242906,43.6976706 16.7617135,43.904276 16.7947704,44.1102629 C16.8299452,44.2847381 16.8871541,44.4541204 16.9650446,44.6144049 C16.7987206,44.7628639 16.633852,44.9119415 16.4704387,45.0616377 C16.2527622,45.2583459 16.0375805,45.4649513 15.8236463,45.6734125 L15.82427,45.6721753 Z M18.6765182,43.0858958 C18.6677862,42.9242404 18.6590541,42.762585 18.6503221,42.6009297 C18.6247498,42.1407068 18.5879507,41.6792467 18.5729815,41.2184052 L18.5268266,39.6212338 C18.5131049,39.1535879 18.5268266,38.6847049 18.5311926,38.2164404 L18.5311926,38.0308667 C18.6492826,37.9310692 18.7677884,37.8316842 18.8867101,37.7327115 C19.0584396,37.5900259 19.230377,37.4477527 19.4025223,37.3058919 L19.4025223,37.5743553 C19.4106306,38.0574656 19.438074,38.5368645 19.4848526,39.0181191 C19.5266415,39.4467944 19.5877656,39.8729955 19.6220699,40.3016709 C19.6594928,40.7686981 19.6844414,41.2369626 19.7162509,41.7039899 C19.7235678,41.8404751 19.7391891,41.9763976 19.7630295,42.111015 L18.9490816,42.8366084 L18.6765182,43.0858958 Z M21.6079781,40.411778 C21.5624469,39.982484 21.5100548,39.5544272 21.4576628,39.1257518 C21.3453941,38.2176776 21.3578684,37.3052733 21.3759561,36.3922504 C21.3759561,36.24441 21.3846881,36.0978067 21.3890541,35.9505849 C21.3912805,35.8645376 21.3805595,35.7786419 21.3572447,35.6957303 C21.7314736,35.3868531 22.1079895,35.0800378 22.4867923,34.7752845 C22.4911583,35.0369434 22.5030089,35.2986024 22.5142358,35.5602614 C22.5304524,35.9400691 22.564133,36.3192581 22.599061,36.6978286 C22.638355,37.130834 22.6863811,37.5638394 22.7468814,37.9968448 C22.7749486,38.1954088 22.8036395,38.3933541 22.8404387,38.5906808 C22.8797861,38.7757455 22.9393923,38.9559956 23.0181974,39.1282262 L22.8753667,39.2488491 C22.4387663,39.6243267 22.0208773,40.017743 21.6048595,40.4136337 L21.6079781,40.411778 Z M24.6429746,37.7191028 C24.6067992,37.4135247 24.5618917,37.1091837 24.5238451,36.8036056 C24.4795613,36.4485411 24.4271693,36.091621 24.4034681,35.7347008 C24.3629267,35.111173 24.3142769,34.4845522 24.3704112,33.8604058 C24.4001655,33.7101376 24.4444459,33.5630613 24.5026388,33.4212146 L24.5356957,33.173783 L24.5356957,33.1515141 C24.7485904,32.9906835 24.9625246,32.8312963 25.1774983,32.6733524 L25.1774983,32.7543863 C25.173756,33.2288365 25.1774983,33.7026682 25.1831117,34.1771184 C25.1899726,34.6255883 25.2242769,35.0759139 25.2716792,35.5219095 C25.3009938,35.7947029 25.3309321,36.0712078 25.3808293,36.3409084 C25.4026594,36.459057 25.4257368,36.572257 25.4587937,36.6873127 C25.4836393,36.7719294 25.5147002,36.8546279 25.5517272,36.9347444 C25.3492278,37.1112456 25.1463125,37.2869221 24.9429815,37.4617738 C24.8388211,37.5496121 24.7396504,37.6355946 24.6398561,37.7209585 L24.6429746,37.7191028 Z M27.1677724,35.5769631 C27.153427,35.4736604 27.1384578,35.3703576 27.1241124,35.2676735 C27.0514463,34.665821 27.0098111,34.0606814 26.9993694,33.4546179 C26.9993694,33.1484212 26.9868951,32.8416059 26.9993694,32.5354092 C27.01122,32.1537459 27.0236943,31.7720825 27.0405346,31.3904192 C27.4652844,31.1163886 27.895024,30.8510181 28.3266347,30.5862662 C28.3079232,30.7903974 28.2935778,30.9945285 28.2779849,31.1992782 C28.2497098,31.578261 28.2314142,31.9578625 28.223098,32.3380825 C28.214366,32.7519119 28.223098,33.1632671 28.2436806,33.5752408 C28.2588848,33.822652 28.2880371,34.0690255 28.3310007,34.3132058 C28.3484499,34.414355 28.3736801,34.5140312 28.4064702,34.611361 C27.9894128,34.9301354 27.5765136,35.2520028 27.1677724,35.5769631 L27.1677724,35.5769631 Z M30.0992324,33.3426551 C30.0886292,33.1106879 30.0798972,32.8787207 30.0811446,32.6467535 C30.0762586,31.856145 30.1149868,31.0658633 30.1971556,30.279451 C30.2308508,30.0541147 30.2847027,29.8322001 30.358074,29.6163341 C30.3954969,29.5371559 30.4341672,29.4585964 30.4747087,29.381274 C30.491549,29.3491079 30.5065182,29.3163232 30.5202399,29.2835385 L30.8495613,29.0917789 C30.8289788,29.4313789 30.8121385,29.772216 30.802159,30.1105788 C30.7884373,30.576369 30.7797053,31.0421591 30.7921796,31.5085678 C30.8040302,31.9353874 30.8083962,32.3622071 30.8626594,32.7846966 C30.6069363,32.9702704 30.3524606,33.1562565 30.0992324,33.3426551 L30.0992324,33.3426551 Z M32.9514805,31.275982 C32.9290267,30.9821569 32.9103153,30.6883318 32.902207,30.3932695 C32.8897327,29.9460368 32.8791295,29.4975669 32.8940987,29.0503341 C32.9078204,28.6562992 32.9277793,28.2635014 32.950233,27.870085 L33.5920356,27.4958446 C33.7558647,27.3997587 33.9199018,27.3042913 34.0841467,27.2094425 C34.0373681,27.6424479 33.9986977,28.0754533 33.9706306,28.5084588 C33.9581563,28.7088784 33.9481768,28.9074423 33.9431871,29.1084806 C33.9375737,29.3317877 33.9431871,29.5513833 33.9512954,29.7753089 C33.9581563,29.9608827 33.9781151,30.1464564 33.9949554,30.3357417 C34.00244,30.4186313 34.0136669,30.5015209 34.0261412,30.5831733 C33.9182385,30.6450313 33.8103358,30.7068892 33.7030569,30.7687471 C33.4435915,30.9283405 33.195353,31.1003055 32.9496093,31.275982 L32.9514805,31.275982 Z M36.0781631,29.3955013 C36.0781631,29.1270379 36.0837766,28.8585746 36.0993694,28.5913484 C36.1236943,28.1688588 36.1617409,27.7476064 36.1941741,27.3257354 C36.2191227,27.0306731 36.262159,26.736848 36.3020768,26.4430229 C36.3176696,26.338483 36.3332625,26.2339431 36.3494791,26.1294032 L36.3644483,26.0186776 L36.7068677,25.8597027 C36.68878,26.0081617 36.6725634,26.1572393 36.6594654,26.3069355 C36.6307745,26.6298338 36.6020836,26.9533507 36.5939753,27.2781048 C36.5864907,27.5762599 36.5746402,27.8756523 36.5777587,28.174426 C36.5708344,28.4770454 36.5944452,28.7795929 36.6482385,29.0775516 C36.4557185,29.1806481 36.2650697,29.2864252 36.076292,29.3948827 L36.0781631,29.3955013 Z M38.6023372,27.6306949 C38.624791,27.0677878 38.6647087,26.5079737 38.7339411,25.9487781 C38.7900345,25.5857919 38.8649799,25.2259188 38.9584784,24.8705946 C39.2620196,24.7468788 39.5657688,24.6246063 39.8697258,24.5037771 C39.8323029,24.7839935 39.8073544,25.0666842 39.7830295,25.3475191 C39.75122,25.7304197 39.7244003,26.1127016 39.6957094,26.4962207 C39.6826114,26.6756086 39.6738794,26.8568523 39.6757505,27.0374775 C39.6758505,27.1988946 39.6850125,27.360181 39.703194,27.5205878 C39.328965,27.6979138 38.9566073,27.8799823 38.5861206,28.0667932 C38.5898629,27.92019 38.5942289,27.7748239 38.6004661,27.6300763 L38.6023372,27.6306949 Z M41.7103084,26.5172524 C41.7901439,25.994553 41.8475257,25.4693792 41.9030363,24.9435869 L41.9423304,24.6714121 C41.9647841,24.5161487 42.0078204,24.3621225 42.0408773,24.2087149 C42.0832899,24.0107695 42.1325634,23.8128242 42.183708,23.616116 C42.3716541,23.5480723 42.560016,23.4810596 42.7487937,23.4150778 C42.6695819,23.8054012 42.5966073,24.1975804 42.5379781,24.5903782 C42.4724631,25.0245665 42.4335136,25.4622904 42.4213434,25.9011475 C42.4186535,26.0434776 42.4251116,26.1858331 42.4406785,26.3273486 C42.1911926,26.4263212 41.9417066,26.5269434 41.6922207,26.6292152 L41.7103084,26.5172524 Z M44.6137012,25.1143148 C44.7384441,24.3268635 44.9037286,23.5486909 45.0746265,22.7698997 C45.0825268,22.7331973 45.0891798,22.696495 45.0945853,22.6597926 C45.3719305,22.5773154 45.6494837,22.4948381 45.9272447,22.4123609 L45.8224606,22.8329948 C45.775682,23.0185685 45.7557231,23.217751 45.7226662,23.4082734 C45.6503153,23.8239586 45.6054078,24.245211 45.5698561,24.6658449 C45.5573818,24.8161596 45.5530158,24.9677115 45.5548869,25.1186448 C45.5548869,25.1470995 45.5548869,25.1749355 45.5580055,25.2027716 C45.2253576,25.3075177 44.8937491,25.4174186 44.5631803,25.5324743 C44.5775257,25.3970055 44.594366,25.256588 44.6112063,25.1167891 L44.6137012,25.1143148 Z M47.5227073,24.4450121 C47.5457848,24.2817072 47.5682385,24.1177837 47.5969294,23.955716 C47.6374709,23.7249859 47.6692803,23.491163 47.7254147,23.2641445 C47.7840439,23.0272286 47.8289513,22.7828899 47.9050446,22.5515412 C47.9904935,22.2929751 48.0753187,22.034409 48.1632625,21.7770801 C48.4695065,21.6929533 48.7757505,21.6100637 49.0832419,21.5296484 C49.2616244,21.4838736 49.4406306,21.440573 49.6202605,21.3972725 C49.5454147,21.6187238 49.4780535,21.8432681 49.4212954,22.0709052 C49.3296093,22.4352484 49.2703564,22.8051587 49.2104798,23.1756876 C49.1686909,23.4317794 49.1362577,23.6909641 49.1056957,23.948293 C49.0925977,24.0602559 49.0788759,24.1759302 49.0726388,24.2916045 L48.5823989,24.4029487 C48.2187731,24.4827454 47.8551474,24.5600678 47.4940164,24.6503804 C47.5008773,24.5810995 47.5114805,24.514293 47.5202125,24.4474864 L47.5227073,24.4450121 Z M51.0442015,23.7429247 C51.0670711,23.5420927 51.0913959,23.341673 51.1171761,23.1416658 C51.1720631,22.7896942 51.2319397,22.4408156 51.3205072,22.0950298 C51.3710281,21.8983216 51.430281,21.7065621 51.4920288,21.5129468 C51.5369363,21.370055 51.594318,21.2308747 51.6498286,21.0910758 L51.7284167,20.9197294 L51.7284167,20.9197294 C52.099735,20.8372521 52.471469,20.7547749 52.8436189,20.6722977 C52.8255312,20.7310627 52.8074435,20.7898277 52.7874846,20.8473556 C52.7382111,20.9927217 52.6908088,21.1368506 52.6490199,21.2846911 C52.5467306,21.6422298 52.4419465,21.9997686 52.353379,22.3610189 C52.3078478,22.5465926 52.2641878,22.7321664 52.2230226,22.9177401 C52.2061823,22.9962997 52.198074,23.0773335 52.1868472,23.1571303 C52.1542495,23.336658 52.1425302,23.5193024 52.1519191,23.7014799 C51.8288348,23.7682865 51.5063742,23.8357116 51.1814188,23.8926209 L51.0217478,23.9198384 L51.0442015,23.7429247 Z M54.6280672,23.0624876 C54.7284853,22.7340221 54.8232899,22.4037008 54.9212132,22.072761 C55.0247498,21.7238823 55.1426319,21.3811894 55.2592666,21.0366408 C55.3559424,20.7533316 55.48817,20.4799196 55.6054284,20.2027961 L55.4987731,20.4539392 C55.5561549,20.3215633 55.6147841,20.1898059 55.6727896,20.05743 L55.6771556,20.0462956 C56.1233196,19.9398999 56.568652,19.829999 57.0131528,19.7165928 C56.9158346,20.2551629 56.7892438,20.7881241 56.6339342,21.3131457 C56.5597121,21.5760419 56.4798766,21.8370823 56.4093968,22.100597 C56.3628242,22.3043318 56.3305218,22.5110185 56.312721,22.7191762 C56.3069579,22.7891258 56.3094698,22.8595041 56.3202056,22.9288745 L56.251597,22.9393904 C55.6902536,23.0266101 55.1326525,23.128057 54.5762988,23.2356898 C54.5906443,23.1812548 54.6081083,23.1231084 54.6255723,23.0655805 L54.6280672,23.0624876 Z M58.4002947,22.4272068 C58.4876148,22.1222473 58.5674503,21.8160506 58.6497807,21.5098539 C58.723379,21.2259261 58.7845031,20.9395239 58.8368951,20.651266 C58.8992666,20.330842 58.9441741,20.0097994 58.9828444,19.6862825 C59.0021796,19.526689 59.016525,19.3646213 59.0233859,19.2031721 C59.3086315,19.1301798 59.5942929,19.0580122 59.8803701,18.9866694 C60.396806,18.8580049 60.917608,18.7547022 61.4396573,18.6631525 C61.2743729,19.1363656 61.1059698,19.6083415 60.9238451,20.0747502 C60.7604318,20.4929097 60.5695751,20.9116878 60.4548115,21.3471676 C60.3903507,21.5643071 60.3372639,21.7846098 60.2957642,22.0071916 C60.2645785,22.2082298 60.2296504,22.4086494 60.2190473,22.6115434 C59.9327622,22.6171106 59.6471008,22.623915 59.3608156,22.6338123 C59.0171487,22.6461839 58.6747293,22.6579369 58.3291912,22.68268 C58.3512292,22.599378 58.3740987,22.5152513 58.3977999,22.4302997 L58.4002947,22.4272068 Z M62.6459219,21.9459522 C62.7762783,21.5129468 62.9340781,21.0904572 63.0881357,20.6661119 C63.3775394,19.8700005 63.6494791,19.0677033 63.9264085,18.2678804 C64.2287023,18.2216932 64.5314119,18.1769493 64.8345374,18.1336487 C65.0996162,18.1014826 65.3653187,18.0717908 65.6310212,18.0427176 C65.5786292,18.1396283 65.5268609,18.2367453 65.4757162,18.3340684 C65.0272653,19.1877076 64.6343249,20.0660901 64.2457505,20.9500397 C64.0704866,21.3477862 63.9089445,21.7510998 63.7555106,22.1568877 C63.7180877,22.2558604 63.6831597,22.3554516 63.6501028,22.45628 C63.255915,22.4839099 62.8608956,22.5094779 62.4650446,22.5329839 C62.5267923,22.3406057 62.5841741,22.1445161 62.643427,21.9490451 L62.6459219,21.9459522 Z M65.9135641,21.3088157 C66.4071305,20.5665206 66.8998652,19.8242256 67.3917683,19.0819306 C67.6131871,18.7485164 67.8371008,18.4175766 68.0497875,18.0785952 C68.0909527,18.0130258 68.1314942,17.9474564 68.1707882,17.8806498 C68.409671,17.8688968 68.6485538,17.8571438 68.8874366,17.846628 C68.7984533,17.9868393 68.7092621,18.1268443 68.6198629,18.2666432 C68.366011,18.6631525 68.1003084,19.0522388 67.8358533,19.4419437 C67.1734681,20.4174431 66.447464,21.3502605 65.7526456,22.3028724 C65.5788371,22.3131821 65.4052365,22.3243165 65.2318437,22.3362757 C65.4567969,21.9960571 65.6832054,21.6539828 65.9110692,21.3100528 L65.9135641,21.3088157 Z M70.3313365,21.7888331 C70.8820768,21.0267436 71.441549,20.2590868 71.907464,19.4425623 C72.2080946,18.91677 72.4968746,18.3854104 72.7806648,17.8515766 C72.7887731,17.8361121 72.7962577,17.8206477 72.804366,17.8051832 L72.9340987,17.8119875 L73.6688348,17.8559067 L73.6220562,17.9264247 C73.3650857,18.3049952 73.1180946,18.6934629 72.8467786,19.0621361 C72.5469797,19.4699859 72.2426068,19.8739182 71.93366,20.2739327 C71.6218026,20.6599261 71.3099452,21.0465381 70.9980877,21.4300572 L70.7486018,21.7535741 C70.6790112,21.8720583 70.6249358,21.9988583 70.5876833,22.1309074 C70.4138748,22.1370932 70.2400663,22.1424542 70.0662577,22.1469905 C70.1535778,22.0306976 70.2421453,21.9119304 70.3288417,21.791926 L70.3313365,21.7888331 Z M75.4058807,20.9846802 C75.978451,20.2015589 76.4967581,19.3819415 77.0181837,18.565417 C77.1354421,18.3814928 77.2512451,18.195919 77.3655929,18.0086957 C77.4622687,18.0136444 77.5589445,18.0173558 77.6556203,18.0235416 C77.7911743,18.0317893 77.9263125,18.0414804 78.061035,18.0526148 L77.9787046,18.1509689 C77.6369088,18.5592312 77.3175668,18.9891437 76.9919877,19.4097776 L76.2822001,20.3258933 C75.8761618,20.8244682 75.4744894,21.3261359 75.0566004,21.8141949 L74.8071145,22.131526 C74.7896504,22.1605992 74.7740576,22.1933839 74.7584647,22.2206014 L74.4740507,22.2051369 C74.7902742,21.8049162 75.1015079,21.3997468 75.4033859,20.9865359 L75.4058807,20.9846802 Z M81.0068403,19.4462737 C81.1989445,19.218018 81.3898012,18.9854323 81.5681837,18.7441864 C81.7484373,18.7992399 81.9280672,18.8573864 82.1052022,18.9223372 C81.8214119,19.2477098 81.5401165,19.5749382 81.2557025,19.8990737 C80.7808476,20.4417738 80.3055769,20.9842678 79.8298903,21.5265555 L79.5866415,21.838938 C79.4471452,22.075145 79.3737243,22.3439888 79.3739548,22.6177292 L79.3739548,22.6498953 C79.1537834,22.6214407 78.9336121,22.5966975 78.7115696,22.5793773 L78.5088622,22.5632942 C79.3371556,21.525937 80.1461138,20.467548 81.0043454,19.4481295 L81.0068403,19.4462737 Z M84.2439205,21.1912856 C84.5108705,20.8875632 84.7784441,20.5838409 85.0404044,20.2751698 C85.3086018,20.4397119 85.5699383,20.6153884 85.8318986,20.7910649 L85.9921933,20.8999348 L85.9921933,20.917255 L85.7950994,21.08489 C84.9487183,21.8061533 84.0929815,22.5175194 83.2434818,23.2363084 C83.1831324,23.2889502 83.1326633,23.3517789 83.094414,23.4218821 C82.8742426,23.3631171 82.6534476,23.3068264 82.4314051,23.2536286 C83.0339136,22.5686553 83.6372538,21.8820324 84.2414256,21.1937599 L84.2439205,21.1912856 Z M85.837512,23.413222 C85.8212954,23.6785925 85.80695,23.943963 85.7988417,24.209952 C85.7967626,24.2784081 85.7955152,24.3468642 85.7950994,24.4153203 C85.5961343,24.3058318 85.3952981,24.2000548 85.190096,24.1060307 C85.1564154,24.0899477 85.1214873,24.0751018 85.0878067,24.0596373 C85.3377085,23.8427222 85.5876102,23.6272504 85.837512,23.413222 L85.837512,23.413222 Z M85.4595408,29.7814947 C85.2212817,31.4881547 84.9605689,33.1917217 84.7272995,34.8990003 C84.5844688,35.9505849 84.4335298,37.0021695 84.2950651,38.0537541 C84.1740644,38.9766743 84.0630432,39.9008316 83.9445374,40.8237517 C83.8114782,41.7722398 83.6659447,42.7207279 83.5079369,43.6692159 C83.3052296,44.9008071 83.1156203,46.1348726 82.9971145,47.3769796 C82.8966964,48.43475 82.8835984,49.5011805 82.8817272,50.5626623 C82.8798561,51.6241442 82.8817272,52.6924305 82.8817272,53.7576238 C82.8817272,54.8710663 82.8817272,55.9845089 82.8667581,57.0979514 C82.8486703,58.255313 82.7956546,59.4077261 82.7170665,60.5619948 C82.6440918,61.6253324 82.5792255,62.6892886 82.512488,63.7532448 C82.4432557,64.8605016 82.3434613,65.9646654 82.2305689,67.0682107 C82.1176765,68.1717559 81.9754695,69.2561252 81.8413708,70.3466803 C81.7122618,71.3982649 81.5575805,72.4498495 81.4596573,73.5014341 C81.3548732,74.6284854 81.2843934,75.758011 81.1983208,76.8862994 C81.1178615,77.9428327 81.0080877,78.9956544 80.8864633,80.0478576 C80.7617204,81.1334641 80.6737766,82.218452 80.6114051,83.3090071 C80.5490336,84.4224496 80.5003838,85.5358921 80.4448732,86.6536647 C80.338218,88.8001345 80.2677382,90.9472228 80.0856134,93.0868882 C79.9982934,94.1168225 79.9228239,95.1473755 79.8411172,96.1797841 C79.7619054,97.1695108 79.6540027,98.155526 79.5292598,99.1403041 C79.3552433,100.395401 79.1681289,101.64988 78.8849623,102.885182 C78.7240439,103.585414 78.5319397,104.272656 78.3055312,104.955567 C78.1215353,105.512288 77.8982454,106.049834 77.6724606,106.588616 C77.4491707,107.097707 77.2196436,107.603086 76.9763948,108.103516 C76.8641261,108.333628 76.7499863,108.567451 76.6177587,108.783954 C76.4855312,109.000456 76.3607882,109.198402 76.2235709,109.402533 C76.1611995,109.471814 76.098828,109.540476 76.0364565,109.607282 C75.9497601,109.698214 75.8568266,109.782959 75.7620219,109.864611 C75.4218445,110.099077 75.0654461,110.309502 74.6954695,110.494325 C74.6486909,110.508552 74.6012886,110.521542 74.5538862,110.533295 C74.4765456,110.533295 74.3998286,110.533295 74.322488,110.528347 C74.2401576,110.511645 74.158451,110.493088 74.0767443,110.472056 C74.0255997,110.459066 73.9757025,110.443601 73.9258053,110.426281 C73.1791719,110.065012 72.4676334,109.636386 71.8001851,109.145822 C71.0230363,108.534666 70.251501,107.918561 69.5049143,107.27029 C69.1269431,106.941825 68.7483482,106.612741 68.3903358,106.263243 C68.0323235,105.913746 67.6699452,105.54631 67.3119328,105.186916 C66.5697121,104.444621 65.8368472,103.695521 65.1289308,102.919823 C64.4210144,102.144125 63.717464,101.387602 63.0083002,100.623038 C61.5706374,99.0660746 60.1604181,97.4843676 58.7514462,95.9020421 C58.0229472,95.0830432 57.334366,94.2355897 56.6501508,93.3800947 C55.9752913,92.5357342 55.2405552,91.7439528 54.5101851,90.9472228 C53.7617272,90.132554 53.0475737,89.2931421 52.3172036,88.4654831 C51.6311172,87.6860734 50.9400411,86.9085193 50.2801508,86.104985 C49.5878273,85.2624801 48.8736737,84.4403884 48.1670048,83.6102551 C47.4809184,82.8030093 46.8091775,81.9809176 46.1205963,81.1749089 C44.6748252,79.484332 43.1223989,77.8902534 41.5836943,76.2844219 C40.8443843,75.5128475 40.1111035,74.7361182 39.383852,73.9542341 C38.5967238,73.1117293 37.7971213,72.2840703 37.0031323,71.4458955 C36.2690199,70.672053 35.5685881,69.8685186 34.8743934,69.0606542 C34.131549,68.1946433 33.3612611,67.3595614 32.6053187,66.5077779 C31.8693352,65.6782632 31.1620425,64.8184382 30.3649349,64.043977 C29.9507882,63.641282 29.5191775,63.2583815 29.0856957,62.8760995 C28.6784099,62.5173236 28.2917066,62.1381346 27.9187252,61.7447182 C27.5557231,61.3611991 27.2076902,60.9628341 26.8390747,60.5848822 C26.4355312,60.1704342 26.0226319,59.7652648 25.6078615,59.3619512 C25.2111789,58.9759578 24.8381974,58.5664584 24.4664633,58.1575775 C24.1047087,57.7598311 23.7279849,57.3775492 23.3437766,57.0045459 C22.5953187,56.2845198 21.84,55.5731537 21.0909184,54.8549833 C20.3231254,54.1188741 19.5316313,53.4081266 18.7894106,52.6454184 C18.3085264,52.1505551 17.8444825,51.642083 17.3841809,51.1292809 C17.0723235,50.7841137 16.7604661,50.4432766 16.4486086,50.0974908 C17.1153598,49.5772657 17.7060178,48.966728 18.311645,48.3796964 C18.9172721,47.7926648 19.5515901,47.1975916 20.1715627,46.6068485 C20.7915353,46.0161053 21.387183,45.431548 21.9990473,44.8488464 C22.6583139,44.22037 23.3088485,43.5857077 23.9643729,42.9522827 C24.2874572,42.6399002 24.6086703,42.3262805 24.9423578,42.0244139 C25.2654421,41.7336817 25.5997533,41.4565582 25.9296984,41.1744861 C26.7405278,40.4804403 27.5613365,39.7993846 28.3727896,39.1065759 C29.1212474,38.4688208 29.892159,37.8601388 30.6705552,37.2594984 C32.0751611,36.2178111 33.4672927,35.1575664 34.89061,34.1393851 C35.5941604,33.6358616 36.3875257,33.2733742 37.1391021,32.8440802 C37.9150034,32.4030333 38.6983893,31.9780694 39.4911309,31.5710443 C40.0767992,31.2722705 40.6593489,30.9648367 41.251878,30.6802903 C41.8240324,30.4052287 42.4011766,30.1408892 42.9833105,29.8872718 C43.6762577,29.6045811 44.3760658,29.338592 45.0808636,29.0831188 C45.9010487,28.787438 46.7312132,28.5263976 47.5676148,28.2789659 C48.4221042,28.0265856 49.2884441,27.8323517 50.1566552,27.6325506 C51.0074023,27.436461 51.8706237,27.3084151 52.731974,27.1686163 C52.9976765,27.1253157 53.263379,27.0826337 53.5297053,27.0449004 C53.9818986,26.986754 54.4347156,26.9298447 54.8856614,26.8636567 C55.256148,26.8092217 55.6253873,26.7504567 55.9964976,26.6978775 L57.2108705,26.5364283 C57.5439342,26.4931278 57.8788691,26.4535387 58.213804,26.4343628 C58.6553941,26.4096196 59.097608,26.3935365 59.5398218,26.3786906 C60.4398424,26.3496174 61.3398629,26.3452874 62.2386361,26.2871409 C63.1118369,26.2308502 63.9850377,26.1634251 64.8582385,26.0848655 C65.7495271,26.0013573 66.6439342,25.9512524 67.5402125,25.9042404 C68.8724674,25.834341 70.2053461,25.7805246 71.5382248,25.7267082 C72.1844209,25.6912919 72.8321836,25.694597 73.4779781,25.7366054 C74.1297601,25.7898033 74.7846607,25.8182579 75.4351953,25.885683 C76.0589102,25.9784699 76.6826251,26.0861027 77.3025977,26.1894054 C77.6880535,26.2512633 78.0760041,26.3044611 78.458965,26.3799278 C78.8250857,26.4523016 79.1843454,26.5506557 79.5448526,26.6477726 C80.2845785,26.8463365 81.0349075,26.9978884 81.7765045,27.1921223 C82.1158053,27.2805791 82.4538588,27.377696 82.7937834,27.4642971 C83.0759315,27.5334546 83.3542741,27.617075 83.6276902,27.7148217 C84.1135641,27.9269943 84.599438,28.1397856 85.0884304,28.3451539 L84.8052639,28.2263867 C85.0779881,28.3473633 85.344251,28.4821858 85.6029952,28.6303189 C85.5551771,29.013838 85.5073589,29.3971509 85.4595408,29.7802576 L85.4595408,29.7814947 Z" id="Shape" fill="#000000"></path>
            <path d="M85.4595408,29.7814947 C85.2212817,31.4881547 84.9605689,33.1917217 84.7272995,34.8990003 C84.5844688,35.9505849 84.4335298,37.0021695 84.2950651,38.0537541 C84.1740644,38.9766743 84.0630432,39.9008316 83.9445374,40.8237517 C83.8114782,41.7722398 83.6659447,42.7207279 83.5079369,43.6692159 C83.3052296,44.9008071 83.1156203,46.1348726 82.9971145,47.3769796 C82.8966964,48.43475 82.8835984,49.5011805 82.8817272,50.5626623 C82.8798561,51.6241442 82.8817272,52.6924305 82.8817272,53.7576238 C82.8817272,54.8710663 82.8817272,55.9845089 82.8667581,57.0979514 C82.8486703,58.255313 82.7956546,59.4077261 82.7170665,60.5619948 C82.6440918,61.6253324 82.5792255,62.6892886 82.512488,63.7532448 C82.4432557,64.8605016 82.3434613,65.9646654 82.2305689,67.0682107 C82.1176765,68.1717559 81.9754695,69.2561252 81.8413708,70.3466803 C81.7122618,71.3982649 81.5575805,72.4498495 81.4596573,73.5014341 C81.3548732,74.6284854 81.2843934,75.758011 81.1983208,76.8862994 C81.1178615,77.9428327 81.0080877,78.9956544 80.8864633,80.0478576 C80.7617204,81.1334641 80.6737766,82.218452 80.6114051,83.3090071 C80.5490336,84.4224496 80.5003838,85.5358921 80.4448732,86.6536647 C80.338218,88.8001345 80.2677382,90.9472228 80.0856134,93.0868882 C79.9982934,94.1168225 79.9228239,95.1473755 79.8411172,96.1797841 C79.7619054,97.1695108 79.6540027,98.155526 79.5292598,99.1403041 C79.3552433,100.395401 79.1681289,101.64988 78.8849623,102.885182 C78.7240439,103.585414 78.5319397,104.272656 78.3055312,104.955567 C78.1215353,105.512288 77.8982454,106.049834 77.6724606,106.588616 C77.4491707,107.097707 77.2196436,107.603086 76.9763948,108.103516 C76.8641261,108.333628 76.7499863,108.567451 76.6177587,108.783954 C76.4855312,109.000456 76.3607882,109.198402 76.2235709,109.402533 C76.1611995,109.471814 76.098828,109.540476 76.0364565,109.607282 C75.9497601,109.698214 75.8568266,109.782959 75.7620219,109.864611 C75.4218445,110.099077 75.0654461,110.309502 74.6954695,110.494325 C74.6486909,110.508552 74.6012886,110.521542 74.5538862,110.533295 C74.4765456,110.533295 74.3998286,110.533295 74.322488,110.528347 C74.2401576,110.511645 74.158451,110.493088 74.0767443,110.472056 C74.0255997,110.459066 73.9757025,110.443601 73.9258053,110.426281 C73.1791719,110.065012 72.4676334,109.636386 71.8001851,109.145822 C71.0230363,108.534666 70.251501,107.918561 69.5049143,107.27029 C69.1269431,106.941825 68.7483482,106.612741 68.3903358,106.263243 C68.0323235,105.913746 67.6699452,105.54631 67.3119328,105.186916 C66.5697121,104.444621 65.8368472,103.695521 65.1289308,102.919823 C64.4210144,102.144125 63.717464,101.387602 63.0083002,100.623038 C61.5706374,99.0660746 60.1604181,97.4843676 58.7514462,95.9020421 C58.0229472,95.0830432 57.334366,94.2355897 56.6501508,93.3800947 C55.9752913,92.5357342 55.2405552,91.7439528 54.5101851,90.9472228 C53.7617272,90.132554 53.0475737,89.2931421 52.3172036,88.4654831 C51.6311172,87.6860734 50.9400411,86.9085193 50.2801508,86.104985 C49.5878273,85.2624801 48.8736737,84.4403884 48.1670048,83.6102551 C47.4809184,82.8030093 46.8091775,81.9809176 46.1205963,81.1749089 C44.6748252,79.484332 43.1223989,77.8902534 41.5836943,76.2844219 C40.8443843,75.5128475 40.1111035,74.7361182 39.383852,73.9542341 C38.5967238,73.1117293 37.7971213,72.2840703 37.0031323,71.4458955 C36.2690199,70.672053 35.5685881,69.8685186 34.8743934,69.0606542 C34.131549,68.1946433 33.3612611,67.3595614 32.6053187,66.5077779 C31.8693352,65.6782632 31.1620425,64.8184382 30.3649349,64.043977 C29.9507882,63.641282 29.5191775,63.2583815 29.0856957,62.8760995 C28.6784099,62.5173236 28.2917066,62.1381346 27.9187252,61.7447182 C27.5557231,61.3611991 27.2076902,60.9628341 26.8390747,60.5848822 C26.4355312,60.1704342 26.0226319,59.7652648 25.6078615,59.3619512 C25.2111789,58.9759578 24.8381974,58.5664584 24.4664633,58.1575775 C24.1047087,57.7598311 23.7279849,57.3775492 23.3437766,57.0045459 C22.5953187,56.2845198 21.84,55.5731537 21.0909184,54.8549833 C20.3231254,54.1188741 19.5316313,53.4081266 18.7894106,52.6454184 C18.3085264,52.1505551 17.8444825,51.642083 17.3841809,51.1292809 C17.0723235,50.7841137 16.7604661,50.4432766 16.4486086,50.0974908 C17.1153598,49.5772657 17.7060178,48.966728 18.311645,48.3796964 C18.9172721,47.7926648 19.5515901,47.1975916 20.1715627,46.6068485 C20.7915353,46.0161053 21.387183,45.431548 21.9990473,44.8488464 C22.6583139,44.22037 23.3088485,43.5857077 23.9643729,42.9522827 C24.2874572,42.6399002 24.6086703,42.3262805 24.9423578,42.0244139 C25.2654421,41.7336817 25.5997533,41.4565582 25.9296984,41.1744861 C26.7405278,40.4804403 27.5613365,39.7993846 28.3727896,39.1065759 C29.1212474,38.4688208 29.892159,37.8601388 30.6705552,37.2594984 C32.0751611,36.2178111 33.4672927,35.1575664 34.89061,34.1393851 C35.5941604,33.6358616 36.3875257,33.2733742 37.1391021,32.8440802 C37.9150034,32.4030333 38.6983893,31.9780694 39.4911309,31.5710443 C40.0767992,31.2722705 40.6593489,30.9648367 41.251878,30.6802903 C41.8240324,30.4052287 42.4011766,30.1408892 42.9833105,29.8872718 C43.6762577,29.6045811 44.3760658,29.338592 45.0808636,29.0831188 C45.9010487,28.787438 46.7312132,28.5263976 47.5676148,28.2789659 C48.4221042,28.0265856 49.2884441,27.8323517 50.1566552,27.6325506 C51.0074023,27.436461 51.8706237,27.3084151 52.731974,27.1686163 C52.9976765,27.1253157 53.263379,27.0826337 53.5297053,27.0449004 C53.9818986,26.986754 54.4347156,26.9298447 54.8856614,26.8636567 C55.256148,26.8092217 55.6253873,26.7504567 55.9964976,26.6978775 L57.2108705,26.5364283 C57.5439342,26.4931278 57.8788691,26.4535387 58.213804,26.4343628 C58.6553941,26.4096196 59.097608,26.3935365 59.5398218,26.3786906 C60.4398424,26.3496174 61.3398629,26.3452874 62.2386361,26.2871409 C63.1118369,26.2308502 63.9850377,26.1634251 64.8582385,26.0848655 C65.7495271,26.0013573 66.6439342,25.9512524 67.5402125,25.9042404 C68.8724674,25.834341 70.2053461,25.7805246 71.5382248,25.7267082 C72.1844209,25.6912919 72.8321836,25.694597 73.4779781,25.7366054 C74.1297601,25.7898033 74.7846607,25.8182579 75.4351953,25.885683 C76.0589102,25.9784699 76.6826251,26.0861027 77.3025977,26.1894054 C77.6880535,26.2512633 78.0760041,26.3044611 78.458965,26.3799278 C78.8250857,26.4523016 79.1843454,26.5506557 79.5448526,26.6477726 C80.2845785,26.8463365 81.0349075,26.9978884 81.7765045,27.1921223 C82.1158053,27.2805791 82.4538588,27.377696 82.7937834,27.4642971 C83.0759315,27.5334546 83.3542741,27.617075 83.6276902,27.7148217 C84.1135641,27.9269943 84.599438,28.1397856 85.0884304,28.3451539 L84.8052639,28.2263867 C85.0779881,28.3473633 85.344251,28.4821858 85.6029952,28.6303189 C85.5551771,29.013838 85.5073589,29.3971509 85.4595408,29.7802576 L85.4595408,29.7814947 Z" id="Path" fill="#FC5151"></path>
            <path d="M37.1840096,49.384269 C37.622971,49.2633074 37.9976276,48.978421 38.2293557,48.5893947 L38.2493146,48.5541357 C38.5075326,48.384645 38.6647087,48.1829882 38.8555655,47.915762 C38.9573027,47.7753409 39.0216615,47.6117262 39.0426799,47.4400746 L39.1050514,46.9749031 C39.0867558,46.7967523 39.0620151,46.6198386 39.0308293,46.4441621 C38.9902879,46.2103392 38.8555655,45.9690933 38.7189719,45.7692923 C38.5823783,45.5694912 38.4258259,45.372783 38.2698972,45.1797863 C38.1772814,45.0609956 38.0761877,44.9489511 37.9673955,44.8445164 C37.7010692,44.5927547 37.3910829,44.3836749 37.0941947,44.1640793 C36.8960046,44.0238778 36.687518,43.8985752 36.4704798,43.7892203 C36.3162143,43.7154032 36.1588302,43.6483904 35.9983276,43.5881821 C35.8074709,43.5139526 35.6596504,43.5195198 35.4245099,43.4892094 C35.378177,43.48333 35.3315083,43.4804373 35.2847978,43.4805493 C34.9691981,43.4805493 34.6760521,43.6135438 34.3935093,43.744064 C34.2516311,43.834637 34.1186152,43.9381854 33.9962029,44.0533536 C33.7716273,44.2799064 33.6066945,44.5577711 33.5159424,44.8624552 C33.4458955,45.1192011 33.422661,45.3862931 33.4473338,45.6511436 C33.4731038,46.0262668 33.5550868,46.3954884 33.6905826,46.7466474 C33.8271761,47.0862473 33.9625223,47.4122386 34.1671008,47.7153424 C34.3648184,48.0079303 34.5893557,48.3110341 34.873146,48.5293926 C35.1850034,48.7700199 35.4999794,48.9908526 35.8305483,49.2042625 C36.2197464,49.4554056 36.7505278,49.5024176 37.1840096,49.384269 L37.1840096,49.384269 Z" id="Shape" fill="#000000"></path>
            <path d="M59.8922207,72.4857271 C59.8464169,72.3797891 59.7945646,72.2765253 59.7369157,72.1764375 C59.434414,71.6512638 59.1044688,71.1440289 58.6834613,70.7017448 C58.3985162,70.4141064 58.0817426,70.159288 57.739157,69.9421295 C57.6133336,69.8616492 57.4810805,69.7915157 57.3437217,69.7324312 C57.1779363,69.6549645 57.0077972,69.5870148 56.8341467,69.5289186 C56.6378194,69.4783619 56.4362856,69.4503421 56.2335093,69.4454104 L56.148684,69.4454104 C55.7301714,69.4454104 55.2810966,69.6619132 55.004791,69.9526454 C54.6929335,70.2823481 54.4871076,70.7530868 54.5332625,71.211454 C54.5425714,71.3910426 54.5729217,71.5689466 54.6237012,71.7415764 C54.6804592,71.9098299 54.7609184,72.0694233 54.8313982,72.2327282 C54.8700685,72.3218036 54.919342,72.406549 54.9648732,72.4919129 C55.1195545,72.7795522 55.2767306,73.0634801 55.4401439,73.3474079 C55.643475,73.7068024 55.8836052,74.0532068 56.1112611,74.3989925 C56.3314325,74.7311696 56.6208362,74.980457 57.0144003,75.0874712 C57.326622,75.1717715 57.6577968,75.1553058 57.959952,75.0404591 C58.2237834,75.1221116 58.7133996,75.1252045 58.9529061,75.0262318 L59.3333722,74.867257 C59.5695069,74.7299084 59.7662061,74.5348288 59.904695,74.3006384 C59.9941,74.161913 60.0574902,74.008305 60.0918095,73.8472199 C60.1491912,73.4500921 60.1816244,73.3647281 60.0918095,72.9682189 C60.0481494,72.7981096 59.9608293,72.6453206 59.8922207,72.4857271 L59.8922207,72.4857271 Z" id="Shape" fill="#000000"></path>
            <path d="M54.8912748,35.3431401 C55.1240568,35.5745765 55.4100042,35.7465153 55.7245579,35.8441893 C56.0856051,35.9569088 56.4741992,35.9473338 56.829157,35.8169718 C57.4067936,35.8134267 57.9396267,35.5076948 58.2306443,35.0128189 C58.3117294,34.8540707 58.3811425,34.6897193 58.4383413,34.5210484 C58.5393831,34.2154703 58.4963468,33.8331884 58.4177587,33.5313217 C58.3713159,33.3809925 58.3144214,33.234037 58.2474846,33.0915119 C58.0547567,32.6362376 57.8801165,32.1531273 57.5900891,31.7461022 C57.5108773,31.6347579 57.4216861,31.5172279 57.3349897,31.4095951 C57.2726182,31.3211383 57.2015147,31.2376301 57.1428855,31.1683492 C57.0087672,31.0209943 56.8434998,30.9048234 56.6588828,30.8281307 C56.3522003,30.6576492 56.0068918,30.5671907 55.6553256,30.5652345 L55.6247635,30.5652345 C55.3259769,30.576134 55.0343815,30.6591553 54.7752639,30.807099 C54.5025164,30.9706124 54.2734107,31.1967708 54.1072653,31.4665044 C53.9089239,31.8030115 53.8945785,32.0386902 53.8471761,32.4172606 C53.8362905,32.5030054 53.8335757,32.5895767 53.8390679,32.6758267 C53.8635124,32.9977276 53.9131432,33.3172579 53.987512,33.6315315 C54.0242606,33.7830748 54.0722083,33.9317293 54.1309664,34.07629 C54.2401165,34.3602178 54.3573749,34.6602287 54.5363811,34.9113719 C54.6423021,35.0648799 54.761016,35.2093087 54.8912748,35.3431401 L54.8912748,35.3431401 Z" id="Shape" fill="#000000"></path>
            <path d="M54.9854558,52.575519 C55.057183,52.7437725 55.1338999,52.9101703 55.212488,53.0703823 C55.46634,53.5974118 55.8443112,54.0681506 56.2310144,54.5036303 C56.3732214,54.6632237 56.5285264,54.8073527 56.6844551,54.9533374 C56.8503427,55.109105 57.031257,55.2483352 57.2245922,55.3690226 C57.5379023,55.5539096 57.8988481,55.6439944 58.2630775,55.6282073 C58.7117959,55.6232143 59.1410738,55.4458213 59.46061,55.1333439 C59.8922879,54.706316 60.0590618,54.0820468 59.8972104,53.4990577 C59.7967923,53.2627605 59.7138382,53.0184217 59.5753735,52.8013004 C59.5317135,52.7332567 59.4843112,52.6683059 59.4394037,52.6014993 L59.4050994,52.5501572 C59.3987661,52.5085029 59.3902302,52.4672073 59.3795271,52.4264414 C59.3145476,52.2192739 59.2364274,52.0163877 59.145634,51.8189967 C59.0832625,51.673012 59.0171487,51.5295016 58.9429267,51.3859912 C58.8077726,51.1136966 58.6487365,50.8537168 58.4676559,50.6090558 C58.3372995,50.4408022 58.209438,50.2682186 58.0684784,50.1073881 C57.9275188,49.9465575 57.6892598,49.7844897 57.5283413,49.6675783 C57.3674229,49.5506668 57.1609733,49.4894275 56.9701165,49.4102493 L56.7917341,49.3861247 L56.7823783,49.3799389 C56.4923509,49.1881794 56.1318437,49.1281772 55.7925428,49.1096198 L55.7482591,49.1096198 C55.4776557,49.1217163 55.213746,49.1969524 54.9779712,49.3292154 C54.7410205,49.4676105 54.5453693,49.66592 54.4110144,49.9038755 C54.1263186,50.4121884 54.1286811,51.0307653 54.4172515,51.5369245 C54.604366,51.8616786 54.7796299,52.1926185 54.9605072,52.5204654 L54.9854558,52.575519 Z" id="Shape" fill="#000000"></path>
            <path d="M71.4877039,40.9326216 C71.5422728,41.1161502 71.6235912,41.290785 71.7290816,41.450991 L71.7808499,41.6483177 L71.7883345,41.6755352 C71.8101645,41.8041997 71.8313708,41.9328642 71.8544483,42.0615286 C71.9112063,42.3776226 72.0091295,42.6869122 72.0764907,43.0005318 C72.1809185,43.3762103 72.449217,43.6859189 72.8079602,43.8448988 C73.1667034,44.0038787 73.5783235,43.9954814 73.9301714,43.822005 C74.1281799,43.7916503 74.3186297,43.7244924 74.4915147,43.6240597 C74.8339342,43.4254957 75.1445442,43.0673384 75.2293694,42.6726849 C75.2774281,42.491047 75.3000938,42.3037213 75.2967306,42.1159636 C75.2856167,41.9279234 75.2557403,41.7414384 75.2075394,41.5592423 C75.1882042,41.4868686 75.1713639,41.4138762 75.1532762,41.3408839 C75.1270802,41.2338697 75.1002605,41.1262369 75.072817,41.0192227 C75.0316518,40.8602479 74.9904866,40.7018916 74.948074,40.5441539 C74.9062851,40.3994064 74.8582591,40.2577517 74.8046196,40.1173343 C74.7422481,39.9496993 74.6711446,39.7814458 74.5969225,39.6224709 C74.506162,39.4449332 74.3913773,39.2805213 74.2557505,39.1337934 C73.9483097,38.7845921 73.5044395,38.5831834 73.0370117,38.5807836 C72.4388137,38.5875621 71.8908476,38.9139183 71.6037149,39.4344229 C71.461388,39.6841554 71.3846077,39.9653503 71.3804249,40.2521845 C71.3897468,40.4208188 71.4105851,40.5886323 71.4427964,40.7544708 C71.452499,40.8150395 71.4675254,40.8746504 71.4877039,40.9326216 L71.4877039,40.9326216 Z" id="Shape" fill="#000000"></path>
            <path d="M41.5325497,63.8825279 C41.4040644,63.4569454 41.1015627,63.0462088 40.7030089,62.8352733 L40.6768129,62.8216646 C40.5901165,62.7226919 40.5021727,62.6249564 40.4117341,62.528458 C40.2476971,62.3527815 40.0767992,62.1857652 39.9046539,62.0175116 C39.8235709,61.9377149 39.742488,61.8572996 39.6589102,61.7787401 C39.5559973,61.6816231 39.4586977,61.5820319 39.3470528,61.4941936 C39.1957493,61.366693 39.0363766,61.2489224 38.8699109,61.1416035 C38.6828796,61.0385109 38.4836279,60.9589262 38.2767581,60.9046877 C37.9638095,60.8196283 37.6335517,60.8196283 37.3206032,60.9046877 L36.8908636,61.0840756 C36.6243301,61.2391437 36.4022979,61.4593477 36.2459424,61.7236865 C36.146148,61.8560625 36.0401165,62.1523619 36.0201576,62.2222613 C35.8841878,62.7121761 35.9752502,63.2181738 36.214133,63.657365 C36.3536383,63.8975837 36.5247948,64.1182966 36.7230843,64.3136776 C36.8278684,64.4219289 36.9370185,64.5258502 37.0449212,64.6310087 C37.239936,64.8219434 37.4436829,65.0027748 37.6561618,65.1735026 C37.8208002,65.3782501 38.0071094,65.5648916 38.2118917,65.7302239 C38.3172995,65.8217736 38.4252022,65.9102304 38.5312337,65.9999244 C38.7339411,66.1712708 38.944133,66.3407615 39.1618095,66.4947877 C39.3900891,66.653144 39.8310555,66.7496424 40.1011241,66.7496424 C40.4324178,66.7467461 40.7569961,66.6566637 41.0416861,66.488602 C41.4374083,66.2596402 41.7270886,65.8862009 41.8487731,65.4481518 C41.9711225,64.9952959 41.9074224,64.5128029 41.6716381,64.1064535 C41.6298492,64.0272754 41.5824469,63.954283 41.5325497,63.8825279 L41.5325497,63.8825279 Z" id="Shape" fill="#000000"></path>
            <path d="M76.1100548,63.3078678 C76.0158739,63.0857979 75.9229404,62.8618722 75.8262646,62.6422766 C75.7426868,62.4567028 75.6603564,62.2661805 75.5711652,62.0818439 C75.4289582,61.7892559 75.2867512,61.4985237 75.1308225,61.215833 C74.9985949,60.97335 74.8563879,60.7327227 74.7042015,60.5019926 C74.5533412,60.2669502 74.3788489,60.0476774 74.1833996,59.8475359 C73.9931666,59.6576321 73.7467992,59.5147403 73.5341124,59.3526725 C72.9467902,59.0126503 72.2203517,59.0126503 71.6330295,59.3526725 C71.3538751,59.5151016 71.1213239,59.745738 70.9575463,60.0225938 C70.7901857,60.3074193 70.702349,60.631319 70.7030706,60.9609784 C70.6756271,61.4558417 70.8427827,61.9018373 71.0816655,62.328657 L71.2450788,62.6200078 C71.3392598,62.7882613 71.4440439,62.9515662 71.5450857,63.1148711 C71.7796025,63.4977716 72.0521659,63.8627333 72.3147498,64.2283136 L72.6103907,64.6081212 C72.6370025,64.634514 72.6640302,64.6598757 72.6914736,64.6842065 C72.8592529,64.9854545 73.0351405,65.281754 73.2808842,65.5304228 C73.8593979,66.1043489 74.7551299,66.2198043 75.4623458,65.8116025 C76.1695617,65.4034007 76.5108128,64.5739642 76.293427,63.7915967 C76.242611,63.626693 76.1813656,63.4651298 76.1100548,63.3078678 L76.1100548,63.3078678 Z" id="Shape" fill="#000000"></path>
            <path d="M72.3184921,87.5920493 C72.2561206,87.4473018 72.1850171,87.3056472 72.1176559,87.1627554 C72.0184853,86.9542942 71.9006032,86.753256 71.7914531,86.5497434 C71.6667101,86.319632 71.5145236,86.1012735 71.3766827,85.8798222 C71.1602536,85.5297063 70.8908088,85.1993851 70.6375805,84.8801982 C70.5253119,84.737925 70.4130432,84.5962704 70.2907951,84.4620387 C70.0793557,84.2294529 69.8080398,84.058725 69.5598012,83.8694398 C69.2635649,83.6973493 68.9263781,83.6068065 68.5830637,83.6071622 L68.068499,83.6758245 C67.7452108,83.7644801 67.4507379,83.9350192 67.2140096,84.1706879 C66.8310487,84.476266 66.5578615,85.0985566 66.5902947,85.5841413 C66.6052639,85.7901282 66.6065113,86.0023008 66.683852,86.1952975 C66.7730432,86.4161303 66.8372858,86.5695379 66.9333379,86.7588232 C67.00756,86.9029521 67.081782,87.0470811 67.1597464,87.1918286 C67.2576696,87.370598 67.3549692,87.5499859 67.4547635,87.7275182 C67.5932282,87.9749498 67.7304455,88.2223815 67.8757711,88.4698132 C68.0005141,88.6801301 68.1358602,88.878694 68.2786909,89.0735465 L68.3460521,89.1688077 C68.5603165,89.4747778 68.7960401,89.765404 69.0514736,90.03853 C69.2223715,90.2172994 69.431316,90.3564797 69.6284099,90.5037015 C69.8386018,90.6602021 70.109294,90.7282458 70.3575326,90.8074239 C70.6727233,90.8931182 71.0053576,90.8931182 71.3205483,90.8074239 L71.7534064,90.6261802 C72.0219183,90.4700145 72.2454892,90.2480715 72.4026936,89.9816207 C72.7145511,89.5449038 72.7968814,88.9356033 72.6521796,88.421564 C72.5742152,88.1339247 72.4351268,87.8580384 72.3184921,87.5920493 L72.3184921,87.5920493 Z" id="Shape" fill="#000000"></path>
        </g>
    </g>
</svg>